<svg id="svg" xmlns="http://www.w3.org/2000/svg" xmlns:xlink="http://www.w3.org/1999/xlink" version="1.1" width="957" height="480" preserveAspectRatio="xMidYMid meet" buffered-rendering="static" style="background: rgb(255, 255, 255);" viewBox="81.81 2.15 870.57 417.89"><g><path d="M 718.28596291905 4.211054312534976 C 717.0682425245276 2.7199744406407387 716.0557425245275 1.8375 716.03596291905 2.25 C 716.0161833135726 2.6625 720.0749054693922 9.1875 725.0553454875381 16.75 C 730.0357855056841 24.3125 736.9587873831546 36.125 740.4397941041391 43 C 743.9208008251235 49.875 748.5716660149882 60.45 750.775050081616 66.5 C 752.9784341482439 72.55 755.6962545635232 81.325 756.8146510044589 86 C 757.9330474453945 90.675 759.0938914300933 96.75 759.3943043037893 99.5 L 759.9405095286913 104.5 L 756.6221555287875 97.5 C 754.7970608288405 93.65 750.2451073709243 85.55 746.5067034000849 79.5 C 742.7682994292456 73.45 738.0271190536179 66.25 735.970747009801 63.5 C 733.9143749659843 60.75 730.942213779945 57.30914645388342 729.3659443741581 55.85365878640761 C 727.7896749683711 54.398171118931785 723.35 51.17618464622113 719.5 48.693688847050595 C 715.65 46.21119304788005 709.35 42.742869053155296 705.5 40.986302192106685 C 701.65 39.22973533105807 692.425 35.4172861552819 685 32.51419291260408 C 677.575 29.611099669926258 665.65 25.368545979037687 658.5 23.086295821740585 C 651.35 20.804045664443485 645.4007617331386 19.063481312930314 645.2794705180856 19.2183750406002 C 645.1581793030326 19.37326876827009 651.0099211427158 28.5 658.2833412729369 39.5 C 666.3266954328036 51.66441428852836 675.3141896545617 66.94380642589806 681.2235388604638 78.5 C 686.5672274033824 88.95 690.9529855636993 97.8375 690.9696681056124 98.25 C 690.9863506475256 98.6625 687.2875 97.6694409037862 682.75 96.04320200841377 C 678.2125 94.41696311304133 670.45 92.38736350114289 665.5 91.53298064863944 C 660.55 90.67859779613597 652.9 89.9791397483135 648.5 89.97862943125614 C 643.9987554036812 89.97810737173414 637.2199168090489 90.79908921865476 633 91.85582689651895 C 628.875 92.88879581947086 622.125 95.40972967478633 618 97.45790213055338 C 613.875 99.50607458632041 607.8 103.00581762488888 604.5 105.23510888292776 C 601.2 107.46440014096663 594.7232924994804 112.48598342968744 590.1073166655119 116.39418285786286 C 585.4913408315434 120.30238228603828 579.2222318749173 126.2 576.1759634285647 129.5 C 573.1296949822123 132.8 568.9074785644917 138.2 566.7932602780747 141.5 C 564.6790419916576 144.8 562.9608110844905 147.725 562.9749693732589 148 C 562.9891276620273 148.275 568.7380515802674 148.52869590817693 575.7503558582371 148.5637686848376 C 585.2977531970323 148.61152099581565 591.0116362208718 149.20429226536453 598.5 150.9238687049876 C 604 152.18685093940942 611.65 154.335531491641 615.5 155.69871437661334 C 619.35 157.06189726158564 626.55 160.4036524539777 631.5 163.12483702637348 C 636.45 165.84602159876923 641.625 168.8896305924065 643 169.8884125677896 L 645.5 171.70437979575894 L 636 174.96154923983812 C 630.775 176.7529924340817 623.125 179.9144471249123 619 181.98700410835062 C 614.875 184.0595610917889 607.9 187.87814423871822 603.5 190.4727444348602 C 599.1 193.0673446310022 592.4625 197.39740448612582 588.75 200.09509966846827 C 585.0375 202.7927948508107 581.9980536052965 205.3375 581.9956746784366 205.75 C 581.9932957515766 206.1625 588.8557957515767 206.84654647990945 597.2456746784366 207.27010328868766 C 605.6355536052964 207.69366009746585 618.35 208.71083849658103 625.5 209.53049973116578 C 632.65 210.35016096575055 644.8 212.33863109148177 652.5 213.9493222327907 C 660.2 215.56001337409964 668.525 217.51855081326232 671 218.30162765315225 C 674.7131282176574 219.47644167771355 675.1502792078477 219.85154009375552 673.5 220.4467584229502 C 672.4 220.84350350644914 664.4048310110013 224.6177876681713 655.7329578022251 228.83405656011053 C 647.0610845934489 233.05032545204972 639.9735845934489 236.8375 639.9829578022251 237.25 C 639.9923310110013 237.6625 649.7875 238.25001960335345 661.75 238.55559911856324 C 673.7125 238.861178633773 688.1125 239.536178633773 693.75 240.05559911856324 L 704 241 L 706.8756050183256 244.25 C 708.4571877784047 246.0375 714.0896808129489 249.75 719.3922562062018 252.5 L 729.0333023757523 257.5 L 729.0274668624327 263.5 L 729.0216313491131 269.5 L 724.0108156745566 277.75 L 719 286 L 713.25 288.56830134250845 C 708.6991201301302 290.6010023650096 706.5615581590286 291.01073782816474 703 290.5330577117358 C 699.0738697035713 290.00648077732325 697.6710770948415 290.393780065089 692 293.57006556229817 C 688.425 295.5723696154121 682.8 298.3030475037974 679.5 299.6382386475988 C 676.2 300.97342979140024 670.575 303.78873135752565 667 305.8944643500997 C 663.425 308.00019734267386 656.3375 310.9103790881362 651.25 312.36153489557176 C 646.1625 313.8126907030073 638.8345052788037 316.4625 634.9655672862303 318.25 L 627.9311345724607 321.5 L 625.9007228176276 327.5 C 624.698197605131 331.0535409297184 622.121623131908 335.53871589190135 619.5816116470662 338.5 C 617.2228269684156 341.25 614.0111647914212 345.75 612.4445845870785 348.5 C 610.8780043827358 351.25 605.1721736711041 358.225 599.7649607834526 364 C 594.0227844315631 370.13274696616656 589.9412236304746 375.33185772073017 589.951838420398 376.5 C 589.9618340083696 377.6 591.582021257541 381.2 593.5522545296678 384.5 C 595.5224878017946 387.8 598.8227233087247 392.525 600.8861112117347 395 C 602.9494991147449 397.475 605.215908774966 401.525 605.9225771233375 404 C 606.629245471709 406.475 607.0482572160191 411.0844714450158 606.8537143329156 414.24326987781296 L 606.5 419.986539755626 L 727.25 419.99326987781296 L 848 420 L 843.5009254552158 412.25 C 840.5420370427518 407.1530884088861 838.4432086777196 401.93249508817473 837.3699877244867 397 C 836.0165710624025 390.7797328519584 835.9329026070342 388.3908981949694 836.8796405287403 383 C 837.6274229607762 378.7419906072553 838.9555917018299 375.292774288401 840.730279683477 373 C 842.2202974239731 371.075 845.4780372072117 367.321698675453 847.9697014240076 364.65933038989556 L 852.5 359.81866077979106 L 859.5 360.36905351729024 C 865.5456223817212 360.8444058962276 866.1228764771987 360.7545130152037 863.7339411475621 359.7097231273947 C 862.2126087787212 359.0443754073276 860.9751087787212 358.1625 860.9839411475621 357.75 C 860.992773516403 357.3375 862.4625 355.58634590040526 864.25 353.85854644534504 C 866.0375 352.1307469902848 870.425 348.75692884286644 874 346.3611727844153 C 877.575 343.96541672596413 883.7966109948342 340.76657082555886 887.8258022107425 339.2526263390703 C 894.178692819554 336.8655657119892 895.2801540585522 336.69920922800185 896.1195538359518 338 C 896.6519260139086 338.825 896.9399040179434 341.975 896.7595049560292 345 C 896.5369229267699 348.73234002086906 895.2336297207187 353.0711417878268 892.7043627239775 358.5 C 890.6544335582632 362.9 889.2073445593943 366.6125 889.4886093931576 366.75 C 889.7698742269209 366.8875 890.8513864415459 365.5375 891.8919698701018 363.75 C 892.9325532986577 361.9625 894.9963375933804 357.125 896.4781571917077 353 C 898.4997208352127 347.3724930896643 899.0260237486845 344.43892058252356 898.586187321606 341.25 C 898.1658801038213 338.20267091295875 898.3537267391055 337.00157816865664 899.25 337.0055769344036 C 899.9375 337.00864424832565 902.3 337.5033692888527 904.5 338.10496591335266 C 906.7 338.70656253785256 909.3021676309958 339.9415529173709 910.2825947355461 340.849388978949 C 911.2630218400965 341.75722504052703 912.0394340574486 343.4 912.0079552185508 344.5 C 911.976476379653 345.6 910.015705344565 350.55 907.6506862516887 355.5 C 904.7241695206146 361.6252181271815 902.4872925244023 364.9791303121364 900.647757383846 366 C 899.1611655994088 366.825 897.957269003501 367.8375 897.9724316151619 368.25 C 897.9875942268229 368.6625 898.45 369 899 369 C 899.55 369 901.9125 367.4289229434414 904.25 365.50871765209206 C 906.5875 363.58851236074275 910.3 360.649776481606 912.5 358.9781934762327 C 914.7 357.3066104708594 916.8689699400022 356.065187527418 917.3199332000049 356.21947582414066 C 917.7708964600077 356.37376412086326 919.6713241679178 358.975 921.5431058842494 362 C 923.560548919056 365.26040431266205 925.9492375855348 371.3683925508565 927.4092484830724 377 C 928.7638451960934 382.225 930.1877407362172 390.55 930.5734607944587 395.5 C 931.1390331584985 402.7580700489351 931.4589066351131 404.01613056914863 932.2261456729592 402 C 932.7494022978929 400.625 932.912579049859 397.1375 932.5887606773284 394.25 C 932.2649423047978 391.3625 932.3375 388.81008610734716 932.75 388.57796912743817 C 933.1625 388.3458521475292 933.3622933219141 386.6583521475292 933.1939851598091 384.82796912743817 L 932.8879703196183 381.5 L 935.4988475829749 384.5 C 936.9348300778211 386.15 939.0572783625253 389.3 940.215399326762 391.5 L 942.3210738071926 395.5 L 941.1095352159089 404.5 C 940.4431889907027 409.45 939.6915727854943 415.075 939.4392769821122 417 C 939.1608400356274 419.124455162544 939.868656770984 417.7967218258487 941.2402786697996 413.621653797176 C 943.0265929101307 408.18430733864517 943.7378640277651 407.0320683614389 944.6354000156115 408.121653797176 C 945.2598700241978 408.87974420872916 946.8348700241978 411.8804234743507 948.1354000156115 414.7898299430017 C 949.4359300070251 417.6992364116526 951.0625 420.06173641165253 951.75 420.0398299430017 C 952.6880391522177 420.0099403062287 952.5969613501013 419.06411745665315 951.3850591638188 416.25 C 950.4968417039191 414.1875 948.4718417039192 409.9125 946.8850591638188 406.75 C 944.5551299841245 402.10638889099624 944.0009488828945 399.7011956497001 944.0049314275366 394.25 C 944.0090433193359 388.6217575815427 943.5703885230971 386.8352547664932 941.3653951111964 383.5 C 939.9109378520641 381.3 937.6348211095648 378.375 936.3073579056423 377 L 933.8937884439651 374.5 L 935.4887019456919 369 C 936.3659043716416 365.975 937.7267347431781 359.225 938.5127694379951 354 L 939.9419234285716 344.5 L 937.7209617142857 342.1747567779649 C 936.4994327714286 340.8958730058456 933.25 338.1229045184351 930.5 336.0126045837194 C 926.436091246955 332.8940349923589 924.1894722542629 329.8027868788434 918.5 319.5011366922568 C 914.1874576097952 311.692626318482 910.471119183733 306.18800371938767 908.8200821149255 305.1632888865023 C 907.3461272781346 304.24847999892603 903.9266231948404 300.35 901.2211841520495 296.5 C 898.5157451092588 292.65 895.4781456392643 288.825 894.4709631076176 288 C 893.463780575971 287.175 889.6832846592652 285.9325376594466 886.0698610704936 285.238972576548 C 882.4564374817221 284.54540749364935 872.75 283.70610887555455 864.5 283.37386453633735 L 849.5 282.7697839195787 L 846.75 277.88489195978934 C 845.2375 275.1982013819052 843.55 272.775 843 272.5 C 842.45 272.225 837.8375 272.44951462533265 832.75 272.99892138962815 L 823.5 273.9978427792563 L 819 269.73318972313814 C 816.525 267.3876305422732 813.2625 264.4631159169405 811.75 263.23426833351004 L 809 261 L 807.5283069774675 249.25 C 806.7188758150746 242.7875 805.3572874436109 234.125 804.5025550408814 230 C 803.6478226381518 225.875 802.722259399573 221.825 802.4457478440394 221 C 802.0683491797123 219.87399317735895 805.3783762787743 218.03777854009053 815.7214997806255 213.63536844347527 C 823.2996749012815 210.4098210873867 831.6375 206.9223210873867 834.25 205.88536844347527 C 836.8625 204.84841579956387 838.775 203.55 838.5 203 C 838.225 202.45 835.1875 201.7445768911607 831.75 201.4323930914682 C 828.2291616016805 201.1126407396746 825.9366658562689 200.5023208411505 826.5 200.03471134062326 C 827.05 199.578170177351 832.675 196.9667621046712 839 194.23158229022368 C 845.325 191.4964024757762 853.9875 187.6253592636564 858.25 185.62926404106867 C 862.5125 183.6331688184809 866.0050655877038 181.6625 866.0112568615639 181.25 C 866.017448135424 180.8375 862.5299481354241 179.93452631942353 858.2612568615639 179.24339182094118 C 853.9925655877038 178.55225732245884 849.2625 177.98975732245884 847.75 177.99339182094118 C 846.2375 177.99702631942353 844.9897418217645 177.6625 844.9772040483656 177.25 C 844.9646662749666 176.8375 852.2771662749666 173.27137894311016 861.2272040483656 169.32528654024483 C 870.1772418217645 165.3791941373795 883.9125 159.6416941373795 891.75 156.57528654024483 C 899.5875 153.50887894311018 906.0032973644988 150.6625 906.0073274766639 150.25 C 906.0113575888291 149.8375 900.0488575888292 148.1963277069923 892.7573274766639 146.60295045998288 C 885.4657973644988 145.00957321297344 875.675 143.14848007206922 871 142.46718792464014 C 866.325 141.78589577721104 858.45 140.91170669574103 853.5 140.5245455213734 L 844.5 139.8206161134323 L 847 137.93947649482857 C 848.375 136.90484970459653 851.4127622870343 135.03271107907426 853.7505828600763 133.77916843811244 C 856.0884034331183 132.5256257971506 858.0009034331183 131.1625 858.0005828600763 130.75 C 858.0002622870343 130.3375 854.0625 130.01948230217562 849.25 130.04329400483473 C 844.4375 130.06710570749385 834.65 130.49448369290306 827.5 130.99302286129966 C 820.35 131.4915620296963 812.25 132.19077890347566 809.5 132.54683813636493 L 804.5 133.19421855979996 L 802.5 129.4462184107427 C 801.4 127.38481832876117 797.8 123.25953523111407 794.5 120.27892263819356 C 791.2 117.29831004527306 785.35 113.29885398930472 781.5 111.39124251381948 C 777.65 109.48363103833424 771.5117077663124 107.37771496002635 767.8593505918053 106.71142900646862 L 761.2187011836106 105.5 L 760.6151897199494 99 C 760.2832584149357 95.425 758.9280314058919 88.45 757.6035741442965 83.5 C 756.2791168827013 78.55 753.5236968930855 70 751.480418611817 64.5 C 749.4371403305486 59 745.2923861314794 49.55 742.2698537249964 43.5 C 739.2473213185134 37.45 733.1126137004644 26.74497444064074 728.6371701293319 19.711054312534976 C 724.1617265581993 12.677134184429214 719.5036833135725 5.702134184429213 718.28596291905 4.211054312534976 Z " class="odd" fill="#000000"></path><path d="M 128 37.69696072342625 C 127.725 37.25528912131069 126.825 37.61382356472706 126 38.49370393101819 C 125.175 39.37358429730932 122.925 40.33251291636656 121 40.62465641781206 C 119.075 40.91679991925756 116.825 41.41720682464745 116 41.73667176312293 C 115.175 42.056136701598405 114.1625 42.24607575699935 113.75 42.15875855290281 C 113.3375 42.07144134880626 113.07089041095891 42.5625 113.15753424657535 43.25 L 113.31506849315069 44.5 L 113.15753424657535 48.25 C 113.07089041095891 50.3125 112.55 52 112 52 C 111.45 52 111.25086177435841 51.4375 111.55747060968537 50.75 C 111.86407944501232 50.0625 111.41407944501232 49.1625 110.55747060968537 48.75 C 109.51135672500222 48.24624384008706 109.16087525250003 48.410406400145106 109.48998764530462 49.25 C 109.83586692299099 50.132367343852444 109.02707507946636 50.39721319591701 106.73998764530462 50.150511174795724 C 104.58768829751575 49.91834838502807 102.15716982088863 50.61923041759076 99.5 52.23828681006333 C 97.3 53.578782263322864 94.375 56.035952523077114 93 57.69866516507278 C 91.625 59.36137780706845 89.825 61.735254211191744 89 62.97394606312455 C 88.175 64.21263791505736 86.24721240585836 66.86273762664503 84.71602756857415 68.86305653331937 C 83.18484273128993 70.86337543999372 81.89077963342966 73.4 81.84033179555132 74.5 C 81.78988395767297 75.6 81.80517155181461 79.9875 81.87430422697716 84.25 C 81.94343690213972 88.5125 82.45 92.9 83 94 C 83.55 95.1 83.8875 97.45544530515343 83.75 99.23432290034096 C 83.5723297006325 101.53289537215997 83.93397820379496 102.4863323350429 85 102.52977744579562 C 85.825 102.56339985060815 86.3875 103.13295454545472 86.25 103.79545454545466 C 86.1125 104.4579545454546 86.5625 104.98533236900425 87.25 104.96740526445389 C 88.04831875229432 104.94658847356386 87.8633018790952 105.57894222035182 86.73797721252843 106.71740526445389 C 85.76886467941907 107.69783236900425 85.20636467941907 109.2875 85.48797721252843 110.25 C 85.7695897456378 111.2125 86.3375 111.98958333333333 86.75 111.97685185185185 C 87.1625 111.96412037037038 87.8975492395897 113.42662037037037 88.38344275464377 115.22685185185185 C 88.86933626969784 117.02708333333334 89.20683626969785 119.0625 89.13344275464377 119.75 C 89.06004923958969 120.4375 89.39132438369757 121.5625 89.86960974155015 122.25 C 90.34789509940273 122.9375 91.01262822043914 125.075 91.34679445496438 127 C 91.68096068948962 128.925 93.28790749539746 131.85 94.91778735698179 133.5 L 97.88120528713512 136.5 L 98.32460129309234 134.5 C 98.67842633491048 132.90402242210425 98.79143087234276 132.8535196193412 98.88399864952478 134.25 C 98.94779939228616 135.2125 99.675 136 100.5 136 C 101.33333333333333 136 102 135.11111111111111 102 134 C 102 132.53333333333333 102.66666666666667 132 104.5 132 C 105.875 132 106.775 131.55 106.5 131 C 106.225 130.45 106.675 130 107.5 130 C 108.325 130 109.7875 129.0956631891337 110.75 127.99036264251929 C 111.7125 126.8850620959049 112.8375 125.9850620959049 113.25 125.99036264251929 C 113.6625 125.99566318913368 113.83369877519897 126.5625 113.63044172266439 127.25 C 113.38714184665406 128.07294150520872 114.39346618800026 128.5 116.5759525649145 128.5 C 119.04407685968108 128.5 120.02919586509852 127.9890333840611 120.43185615895763 126.5 C 120.72931511990919 125.4 120.9904066291386 123.15 121.01205951280076 121.5 C 121.03763726036003 119.55091625987133 120.14719208657448 117.62423645010723 118.47014858862896 116 L 115.88886878507142 113.5 L 109.69443439253571 114.3602677791934 C 106.28749547664107 114.83341505774978 101.81482116195215 115.28341505774978 99.75515813767146 115.3602677791934 L 96.01031627534292 115.5 L 95.96063278660158 110 C 95.92647730502259 106.21896220568483 96.40758895238665 104.03119212572231 97.5 103 C 98.37397788617687 102.175 99.09889004141685 101.05 99.1109159005333 100.5 C 99.12294175964975 99.95 100.58967164043486 97.475 102.37031563561132 95 C 104.1509596307878 92.525 107.15858388352926 89.71319929958565 109.0539250861479 88.75155399907923 C 110.94926628876655 87.78990869857282 114.1875 87.00240869857281 116.25 87.00155399907923 C 118.3125 87.00069929958566 121.2375 86.50434007151736 122.75 85.89853349226078 C 124.2625 85.29272691300422 127.75 84.63620184418139 130.5 84.43958889487669 C 133.25 84.242975945572 137.975 83.84822362360997 141 83.56236151273885 C 144.61837718988093 83.2204253337546 147.5263397146104 83.52150041144827 149.5 84.44240660913646 C 151.15 85.21229352302628 154.3 86.15249865835644 156.5 86.5317513543146 C 158.7 86.91100405027275 161.175 87.31163368407178 162 87.42203942942353 C 162.825 87.53244517477529 164.625 88.23369315403932 166 88.98036827223245 C 167.375 89.7270433904256 168.725 90.37441853207051 169 90.41897969811001 C 169.275 90.4635408641495 169.3875 92.8625 169.25 95.75 L 169 101 L 174.10294463456376 106.75 C 176.9095641835738 109.9125 180.49578162931897 115.2 182.0723167362197 118.5 C 183.64885184312044 121.8 184.95252675756674 125.7375 184.96937210165595 127.25 C 184.98621744574518 128.7625 184.57305884399588 130.7875 184.05124187554642 131.75 C 183.52942490709697 132.7125 182.85442490709696 135.6375 182.55124187554642 138.25 C 182.2480588439959 140.8625 181.55 143 181 143 C 180.45 143 179.56368390865535 142.2125 179.03040868590074 141.25 C 178.1883279267665 139.7301417802985 178.04323743240266 139.82877397185501 177.92713936727728 142 C 177.85361646478893 143.375 177.6276845247009 146.3 177.42506838930382 148.5 C 177.22245225390677 150.7 176.56362918468332 152.95 175.9610171243628 153.5 C 175.21502602827755 154.18086108769324 174.48791981030217 153.96682416289568 173.6826794164355 152.8293299044905 L 172.5 151.15865980898099 L 171.20211064594645 152.8293299044905 L 169.90422129189292 154.5 L 170.45211064594645 152.75 C 170.75344979067592 151.7875 170.55 150.775 170 150.5 C 169.45 150.225 168.94779939228616 151.0125 168.88399864952478 152.25 C 168.80180842270263 153.84418842618854 168.6560725174112 153.98992433147995 168.38399864952478 152.75 C 168.17279939228615 151.7875 167.55 151 167 151 C 166.41465785618024 151 166.22497243700073 152.55496696067593 166.54254955898614 154.75 C 166.8409518164285 156.8125 167.2558513408234 160.075 167.46454850208593 162 L 167.84399788619962 165.5 L 166.36777747393865 163.5 C 165.5558562471951 162.4 164.24095672280018 161.3875 163.44577853083882 161.25 C 162.2223219032455 161.03844328479488 162.19221642397446 161.47494033273884 163.25 164.08857798750037 C 164.0905440894434 166.1654467652431 164.1628770263044 167.3938144969129 163.47082028551822 167.83857798750037 C 162.90477144255323 168.20236009437517 162.51633218924155 169.625 162.6076219448256 171 C 162.69891170040967 172.375 163.27454257192647 173.6125 163.8868016593074 173.75 C 164.49906074668831 173.8875 165.02003640798145 174.7875 165.04452535106986 175.75 C 165.08440657146502 177.3174696327937 164.91428319499707 177.34354539953745 163.4134767021489 176 L 161.73790270215807 174.5 L 162.13731136317278 176.5 C 162.35698612673087 177.6 161.8534580187453 179.29183681086633 161.01836001209375 180.2596373574807 C 160.1832620054422 181.2274379040951 158.9375 182.0149379040951 158.25 182.0096373574807 C 157.5625 182.00433681086633 157 182.45 157 183 C 157 183.55 156.325 184 155.5 184 C 154.675 184 153.71766014711054 184.7875 153.3725781046901 185.75 C 152.83322327228373 187.25436407107676 152.62482754325976 187.28945491806581 151.88789087920713 186 C 151.33101486037043 185.02560619349148 151.025259889617 184.9380051612429 151.01531277451704 185.75 C 151.00689074853267 186.4375 150.325 186.775 149.5 186.5 C 148.675 186.225 148 186.45 148 187 C 148 187.55 147.55 188 147 188 C 146.45 188 146.225 187.55 146.5 187 L 147 186 L 146.5 186 C 146.225 186 144.86203542923036 186.5625 143.4711898427341 187.25 C 142.08034425623785 187.9375 140.93732732244302 188.95 140.93115221207893 189.5 C 140.9249771017148 190.05 140.21692597823537 189.15 139.35770527101351 187.5 C 138.0979448224924 185.08082559860472 137.62463980106085 184.79041279930235 136.91305567618576 186 C 136.33612502687956 186.98069631501897 136.02532422887813 187.0672469291825 136.01531277451707 186.25 C 136.00451819564742 185.3688256855719 135.48364404019935 185.27730679706266 134.25 185.93983014168563 C 133.2875 186.45673671961273 131.4875 186.68173671961273 130.25 186.43983014168563 C 129.0125 186.19792356375854 127.31028862550056 186.5625 126.46730805666792 187.25 C 125.20523429190847 188.27929503401683 124.68608064358268 188.14687205442692 123.52699333598903 186.5 C 122.75280080844827 185.4 121.8675121829477 182.8125 121.5596852793211 180.75 C 121.2518583756945 178.6875 120.55 177 120 177 C 119.45 177 118.775 176.1 118.5 175 C 118.225 173.9 118.45 172.1 119 171 C 119.89145136906845 169.2170972618631 120.4070573659933 169.11612140297046 123.75 170.06976386504294 C 125.8125 170.6581339908166 128.175 170.93533459853043 129 170.68576521551813 C 129.89556522466935 170.41484926331452 129.59334783700402 170.1852592008087 128.25 170.1160013504752 C 127.01249999999999 170.05220060771384 126 169.55 126 169 C 126 168.45 127.6875 167.74270595583812 129.75 167.42823545741803 C 131.8125 167.11376495899793 136.5375 165.76376495899794 140.25 164.42823545741803 C 143.9625 163.0927059558381 147.7875 162.02003640798145 148.75 162.0445253510699 C 149.7125 162.06901429415834 151.175 161.3739778861769 152 160.5 C 152.825 159.62602211382313 154.0625 158.9309857058417 154.75 158.95547464893014 C 155.4375 158.97996359201855 156.7875 160.86299006164757 157.75 163.13997791477237 L 159.5 167.27995582954478 L 160.07276876935174 164.38997791477237 C 160.38779159249518 162.80049006164757 160.21956905208944 160.6 159.69894090178343 159.5 C 159.17831275147742 158.4 159.03306680526913 155.8125 159.3761721324317 153.75 L 160 150 L 156.33206653931495 146.75 C 154.31470313593817 144.9625 151.95220313593816 142.8240016979055 151.08206653931495 141.9977815509011 C 150.21192994269174 141.1715614038967 148.0375 139.4840614038967 146.25 138.2477815509011 C 144.4625 137.0115016979055 142.6625 135.98398564321826 142.25 135.96441254048506 C 141.8375 135.94483943775185 143.8625 138.41983943775185 146.75 141.46441254048506 C 149.6375 144.50898564321827 151.775 147.45 151.5 148 C 151.21768796387516 148.5646240722497 150.0966135366422 148.67346805418728 148.92504269120752 148.25 C 147.51984901701843 147.74208822216437 146.55643885150656 147.98417644432874 145.94035546572456 149 L 145.0306255490341 150.5 L 145.05983812558694 149 C 145.08371127553735 147.7741675281232 144.80674490372212 147.72847294010268 143.54452535106986 148.75 C 142.2882871391169 149.76668630032745 141.906674520131 149.72002356039295 141.5 148.5 C 141.225 147.675 140.325 147 139.5 147 C 138.675 147 138.01137519315023 146.6625 138.0252782070005 146.25 C 138.03918122085076 145.8375 138.82668122085076 144.72696076699293 139.7752782070005 143.78213503776203 L 141.5 142.0642700755241 L 136.5 142.62647879971627 C 133.75 142.935693598022 130.2625 144.04623283102907 128.75 145.09434376195424 C 127.23750000000001 146.1424546928794 125.55 147 125 147 C 124.45 147 124 147.45 124 148 C 124 148.6374214248763 123.36548749353352 148.66525613238224 122.25 148.07676875969972 C 121.2875 147.56899157753458 119.06515808836205 147.23149157753457 117.31146241858232 147.32676875969972 C 114.50781766451533 147.47908901489723 114.04314830270172 147.9224898911583 113.46203832493418 151 C 113.09855074320741 152.925 111.94589265484537 155.7375 110.90057590635185 157.25 C 109.55805516729707 159.1925333237478 108.52610508073779 159.7797818155676 107.38604976985573 159.25 C 106.31349061824153 158.75158353790206 105.47487882523464 159.08702825510483 104.88604976985573 160.25 C 104.39872239643508 161.2125 103.55 161.775 103 161.5 C 102.38773979514842 161.19386989757422 102.23269137641573 162.06628443665815 102.60012250309944 163.75 C 102.93018987980415 165.2625 104.05518987980415 167.7375 105.10012250309944 169.25 C 106.14505512639475 170.7625 107.01000613051497 172.5625 107.02223584558882 173.25 C 107.03446556066267 173.9375 107.9244594301477 175.625 109 177 C 110.07554056985231 178.375 110.96553443933735 179.8375 110.97776415441119 180.25 C 110.98999386948503 180.6625 112.34791764169059 182.4625 113.99537253709019 184.25 C 115.64282743248981 186.0375 116.9928274324898 187.8375 116.99537253709019 188.25 C 116.99791764169059 188.6625 117.45 188.775 118 188.5 C 118.55 188.225 119.3375 189.36041666666665 119.75 191.02314814814815 C 120.1625 192.68587962962962 120.8375 194.03587962962962 121.25 194.02314814814815 C 121.6625 194.01041666666666 122.45 195.125 123 196.5 C 123.55 197.875 124.45 198.775 125 198.5 C 125.55 198.225 125.9862460412094 198.5625 125.96943564713199 199.25 C 125.95262525305458 199.9375 126.86637921184519 201.625 128 203 C 129.13362078815481 204.375 130.0472163148289 205.05 130.03021228149794 204.5 C 130.01320824816696 203.95 131.23695428937637 203.51216025075246 132.7496479286299 203.5270227794499 C 134.26234156788345 203.54188530814736 137.3 204.34044193519978 139.5 205.30159306178865 C 141.7 206.2627441883775 143.725 207.04872082633355 144 207.04820781280213 C 144.275 207.04769479927072 145.85 208.88067828506772 147.5 211.12150444790663 C 149.15 213.36233061074554 152.075 215.9967769614301 154 216.9758296716501 C 155.925 217.95488238187008 158.85 219.0356034834742 160.5 219.37743211965923 C 162.15 219.71926075584426 165.4125 220.89917751645118 167.75 221.99946936545237 L 172 224 L 178.75 217.55942872366447 C 182.4625 214.01711452167993 185.13746994862393 210.7546145216799 184.69437766360875 210.30942872366447 C 184.25128537859356 209.86424292564902 183.57628537859355 209.9929144419041 183.19437766360875 210.59536542645355 C 182.81246994862394 211.19781641100298 180.8125 211.985316411003 178.75 212.34536542645355 C 175.94077028956303 212.83577046471646 175.139853809839 212.686409903479 175.55747060968497 211.75 C 175.86407944501167 211.0625 175.41407944501168 210.1625 174.55747060968497 209.75 C 173.70086177435823 209.3375 173 208.325 173 207.5 C 173 206.61111111111111 173.61111111111111 206.2037037037037 174.5 206.5 C 175.37046632124353 206.7901554404145 175.87259437453739 206.47538860103626 175.69642857142856 205.75 C 175.52946428571428 205.0625 176.2044642857143 203.7125 177.19642857142856 202.75 C 178.18839285714284 201.7875 179.225 201.225 179.5 201.5 C 179.775 201.775 181.48539445939338 200.0875 183.30087657642974 197.75 C 185.1163586934661 195.4125 187.2442802333033 193.5 188.02959110940128 193.5 C 188.89336520326125 193.5 189.55706256647724 192.31485740010444 189.7096354262822 190.5 C 189.84834892446872 188.85 190.64542738463155 187.1625 191.48092089331067 186.75 C 192.67976982887552 186.1581040956233 192.85229012396002 184.99867406105247 192.2993071647307 181.25 C 191.77103138303167 177.66881601071924 191.89406464731792 176.68454989642936 192.7993071647307 177.25 C 193.61932844196238 177.76221756294217 194.02425738253842 177.12813106412128 194.0765112727791 175.25 C 194.11859247280762 173.7375 194.39256601096105 171.6 194.6853413575645 170.5 C 194.97811670416797 169.4 195.2811866314174 165.1947945698507 195.3588300847854 161.15509904411266 C 195.43647353815342 157.11540351837462 195.1625 153.62790351837464 194.75 153.40509904411266 C 194.3375 153.18229456985068 194 151.65 194 150 C 194 148.35 193.55 146.775 193 146.5 C 192.45 146.225 192.19679327207928 145.4375 192.43731838239836 144.75 C 192.67784349271744 144.0625 192.43157791461152 143.05 191.89006154216295 142.5 C 191.34854516971438 141.95 190.7015343552233 138.575 190.45225973218274 135 C 190.2029851091422 131.425 190.22425068724812 127.2625 190.49951657241814 125.75 C 190.7863385214908 124.17400304089831 191.53363774586288 123.15776819686576 192.25 123.36955827733533 C 193.0762154241856 123.61382607643127 193.5 122.59404332755923 193.5 120.36159501288594 C 193.5 117.80843231485717 194.2322163606279 116.39869686121148 196.5 114.58569790330694 C 198.15 113.26659134102009 200.9778589189655 111.35767481002232 202.78413093103444 110.34366116775634 L 206.06826186206885 108.5 L 207.99610574867592 110.5 C 209.0564198863098 111.6 210.54905470230017 114.975 211.31307200643226 118 C 212.1710309414167 121.39694633130875 212.4023021994053 124.64712018292249 211.9179029424535 126.5 C 211.4865426531331 128.15 210.3766155058188 132.2 209.45139817064396 135.5 C 208.52618083546912 138.8 207.04401236631145 142.625 206.15769046140474 144 C 205.271368556498 145.375 204.08580196885646 146.83060925146734 203.52309804442353 147.23468722548296 C 202.96039411999058 147.63876519949855 201.375 147.99659404482225 200 148.02986243731334 C 198.49800410598587 148.06620352016574 196.82855726918777 147.1741127095153 195.818036151392 145.79517521183038 L 194.136072302784 143.5 L 195.59274882533953 148.5 C 196.39392091274507 151.25 197.37580464461868 153.60436499096977 197.77471267394753 153.73192220215503 C 198.17362070327638 153.8594794133403 199.26391767573685 154.5344794133403 200.1975948349708 155.23192220215503 C 201.45585658345243 156.17182479508122 201.96686694265617 158.31158162246467 202.17215257505188 163.5 C 202.32448217286253 167.35 202.10969788101204 172.525 201.6948541487174 175 L 200.94059281727266 179.5 L 202.53544790341041 176 C 203.41261820078617 174.075 204.54756965023458 168.9 205.05756223551793 164.5 C 205.56755482080132 160.1 205.988236648153 156.1625 205.99241074074388 155.75 C 205.99658483333474 155.3375 207.35 155 209 155 C 210.91474132179812 155 212.0904382231835 155.5525182208017 212.25 156.52733601278487 L 212.5 158.05467202556974 L 214.75 156.52733601278487 C 216.23287449790058 155.52073706919205 217.39122055444835 153.21004049510134 218.14746054602514 149.75 C 218.90898958999966 146.26576039392762 219.0337726241948 141.1366468687093 218.51846837459425 134.5 C 218.09141937999343 129 217.6045537863887 121.8 217.43654483325037 118.5 C 217.26853588011207 115.2 216.7979342328842 111.375 216.3907633949662 110 C 215.98359255704824 108.625 215.61660090494166 105.54568703543983 215.57522639028494 103.15708230097738 C 215.53385187562822 100.76847756651495 215.8375 98.63097756651494 216.25 98.40708230097738 C 216.6625 98.18318703543983 216.58385749121373 97.4375 216.07523886936383 96.75 C 215.56662024751392 96.0625 213.99162024751394 92.2375 212.57523886936383 88.25 C 211.15885749121372 84.2625 210.225 80.55 210.5 80 C 210.775 79.45 210.1 78.325 209 77.5 C 207.9 76.675 207.225 75.55 207.5 75 C 207.775 74.45 207.55 74 207 74 C 206.45 74 206.09793774372667 73.6625 206.21763943050374 73.25 C 206.3373411172808 72.8375 205.88734111728078 71.0375 205.21763943050374 69.25 C 204.5128467684317 67.36883871830064 202.73645656772248 65.36822828386124 201 64.5 C 199.35 63.675 198 62.325 198 61.5 C 198 60.675 196.5375 58.440295384981624 194.75 56.53398974440361 C 192.9625 54.6276841038256 191.05 53.07272051180705 190.5 53.07851509547349 C 189.95 53.084309679139935 188.825 52.372979850741935 188 51.49778214347793 C 187.175 50.62258443621392 184.925 49.646951160044864 183 49.32970819643559 C 181.075 49.01246523282631 178.6 47.94157858502057 177.5 46.94996009020062 C 176.4 45.95834159538066 173.7 44.50285102219955 171.5 43.71553659424259 C 168.7556099509744 42.73340119354288 166.8721950245128 42.5830807920999 165.5 43.23666048681344 C 164.1597343704031 43.875032136162645 163.17013281479845 43.822684003487666 162.5 43.07796591207727 C 161.95 42.46675132710145 159.7 41.954568687193664 157.5 41.93978226783775 C 155.3 41.924995848481835 151.475 41.45621576131087 149 40.89804874079117 C 146.525 40.33988172027146 142.7 39.61444390671699 140.5 39.28596471067013 C 138.3 38.95748551462327 134.7 38.646265601794234 132.5 38.594364904383376 C 130.3 38.54246420697252 128.275 38.13863232554181 128 37.69696072342625 Z " class="odd" fill="#000000"></path><path d="M 117 43 C 117.55 43 118 43.225 118 43.5 C 118 43.775 117.55 44.225 117 44.5 C 116.45 44.775 116 44.55 116 44 C 116 43.45 116.45 43 117 43 Z " class="even" fill="#ffffff"></path><path d="M 152 103.1095131885209 C 151.175 103.16296862647506 148.925 103.57069294018959 147 104.0155672189976 C 145.075 104.46044149780563 141.025 105.31027632095271 138 105.90408904821334 C 134.975 106.49790177547395 131.6 107.6329028522857 130.5 108.42631366335053 C 129.4 109.21972447441537 128.4148605363078 110.68588105014258 128.31080119179512 111.68443938718876 C 128.20674184728244 112.68299772423494 128.99424184728244 114.2875 130.06080119179512 115.25 C 131.1273605363078 116.2125 132 117.675 132 118.5 C 132 119.325 133.2375 120.74091417480918 134.75 121.64647594402038 L 137.5 123.29295188804078 L 141.5 121.74140766759993 C 143.7 120.88805834635745 146.7375 119.92214417154828 148.25 119.59493172357953 C 149.7633636784091 119.26753242845278 151 118.32547109731405 151 117.5 C 151 116.675 151.3375 115.9925 151.75 115.98333333333333 C 152.1625 115.97416666666666 153.09571592965165 116.53666666666666 153.82381317700367 117.23333333333333 C 154.55191042435573 117.93 157.06675288941173 118.725 159.41235198823927 119 L 163.67707762247116 119.5 L 162.5885388112356 117.7754398098505 C 161.989842465056 116.82693170526827 159.71540633641652 115.25193170526828 157.53423630314785 114.2754398098505 C 155.35306626987915 113.29894791443272 151.30306626987914 112.50844536195686 148.53423630314785 112.51876747101525 C 145.76540633641653 112.52908958007363 142.7125 112.86658958007364 141.75 113.26876747101525 C 140.7625116473435 113.68138667413297 140 113.56427905866086 140 113 C 140 112.45 142.1375 111.06776028537182 144.75 109.92835618971515 C 147.3625 108.78895209405849 150.175 107.46892632409957 151 106.99496558980647 C 151.92200990189784 106.46527287449857 152.99833262760885 106.58921083280555 153.7932729191515 107.31660940009131 C 154.50457302468484 107.96747423004109 156.64207302468483 108.3875 158.5432729191515 108.25 C 160.5883781199541 108.10209237285949 161.79581525428102 108.40836949143795 161.5 109 C 161.225 109.55 161.7875 110.2352569070341 162.75 110.52279312674243 C 163.7125 110.81032934645076 164.95 110.58652098652377 165.5 110.02544121579355 C 166.17049164802484 109.34144248824755 165.84098329604964 108.52064055933265 164.5 107.53445146092159 C 163.4 106.72548686647222 161.825 106.06325602627257 161 106.06282737158902 C 160.175 106.06239871690548 158.15 105.37585953327246 156.5 104.53718474129342 C 154.85 103.69850994931437 152.825 103.05605775056675 152 103.1095131885209 Z " class="odd" fill="#000000"></path><path d="M 207.63318509703606 112.22619047619048 L 205.76637019407215 110.5 L 206.88318509703606 112.75 C 207.49743329366623 113.9875 208.3375 114.76428571428572 208.75 114.47619047619048 C 209.1625 114.18809523809523 208.65993329366623 113.17559523809524 207.63318509703606 112.22619047619048 Z " class="odd" fill="#000000"></path><path d="M 101.75 121.95547464893012 C 102.4375 121.97996359201855 102.83313014213951 122.3375 102.62917809364336 122.75 C 102.42522604514723 123.1625 101.18772604514722 123.84963862439552 99.87917809364336 124.27697472087894 C 97.7385235205882 124.97605416089294 97.65038188265025 124.89639934882145 99 123.48244936980907 C 99.825 122.61812433023721 101.0625 121.93098570584169 101.75 121.95547464893012 Z " class="even" fill="#ffffff"></path><path d="M 198.59507968413993 124 L 196.1387309760934 121.5 L 195.56936548804669 123.75 C 195.25621446962103 124.9875 195.5625 126.68541836439046 196.25 127.52315192086768 C 196.9375 128.3608854773449 197.725 128.81446498536346 198 128.53110638313115 C 198.275 128.24774778089886 199.08253640798145 128.5748294165084 199.79452535106986 129.25795446226348 C 200.836496428096 130.25768422854517 201.08538075656077 130.1098117756674 201.0702395471631 128.5 C 201.05989341192597 127.4 199.94607147356555 125.375 198.59507968413993 124 Z " class="odd" fill="#000000"></path><path d="M 146.25 123.01531277451707 C 143.46061929398903 123.02670294992863 142.88424771759563 123.27894549588689 144 124 C 144.825 124.53315594803124 146.5125 124.97626519949856 147.75 124.98468722548293 C 148.9875 124.99310925146732 150 124.55 150 124 C 150 123.45 148.3125 123.00689074853268 146.25 123.01531277451707 Z " class="odd" fill="#000000"></path><path d="M 99 126.69252709829733 C 99.275 127.01223243232903 98.9375 127.43720238095237 98.25 127.63690476190476 C 97.47095166398272 127.86319975474788 97.19063448019848 129.03609366076196 97.5059820751729 130.75 L 98.01196415034579 133.5 L 96.90090938560485 130.5 C 96.02263663281497 128.12854330678832 96.07376191061046 127.35451785571874 97.14492731043195 126.80562233639257 C 97.89021728969438 126.4237146214085 98.725 126.37282176426564 99 126.69252709829733 Z " class="even" fill="#ffffff"></path><path d="M 104.5 128 C 104.775 128 105 128.45 105 129 C 105 129.55 104.55 130 104 130 C 103.45 130 103.225 129.55 103.5 129 C 103.775 128.45 104.225 128 104.5 128 Z " class="even" fill="#ffffff"></path><path d="M 111.09294424925511 131.5 C 109.49995951162055 131.5 108.37737148105128 131.8375 108.59830418132341 132.25 C 108.81923688159553 132.6625 107.65 133.45 106 134 C 104 134.66666666666666 103 135.66666666666666 103 137 C 103 138.1 103.5625 139.15990072445132 104.25 139.35533494322516 C 104.9375 139.55076916199897 107.525 139.09412623748827 110 138.3405728887569 C 112.475 137.58701954002552 114.725 136.71506993295762 115 136.40290709527267 C 115.275 136.09074425758772 114.2625 136.09738718209843 112.75 136.4176691497409 C 111.2375 136.7379511173834 109.99850753181273 136.6625 109.99668340402829 136.25 C 109.99485927624384 135.8375 110.89485927624385 134.9375 111.99668340402829 134.25 C 113.09850753181273 133.5625 113.99758803056928 132.6625 113.99464006793171 132.25 C 113.99169210529415 131.8375 112.68592898688969 131.5 111.09294424925511 131.5 Z " class="odd" fill="#000000"></path><path d="M 736.6806566107267 136.28188390226603 C 736.7800177466264 136.40184775601972 736.4260440037305 139.875 735.8940482931803 144 C 735.36205258263 148.125 735.2019872193101 154.2 735.5383474858028 157.5 L 736.1499116066985 163.5 L 732.5996363227666 170.5 C 730.646984916604 174.35 728.7969147116175 178.85 728.4883692005744 180.5 L 727.9273773623142 183.5 L 729.2136886811571 181.57920232419633 C 729.9211599065208 180.5227636025043 732.075 177.90285921380047 734 175.75719257152116 C 737.1309242191345 172.26736417853343 737.5929600521889 172.0481118295677 738.3815538692298 173.67799024732483 C 738.918886970146 174.78855896521804 738.8277642780464 176.86664670322472 738.1481874683918 179 C 737.5349813198545 180.925 737.0936949335226 185.425 737.1675510543207 189 L 737.3018349103174 195.5 L 737.9553623156221 188 C 738.3148023885398 183.875 739.2047141036417 179.375 739.9329439047376 178 C 740.6611737058336 176.625 741.986673518625 174.69783236900426 742.8784990442741 173.71740526445387 C 743.7703245699233 172.73697815990352 745.7375 171.94947815990352 747.25 171.96740526445387 C 748.7625 171.98533236900425 751.0125 172.50498389220368 752.25 173.1221864271193 C 753.4875 173.7393889620349 755.7470641709053 175.4268889620349 757.2712537131229 176.8721864271193 C 758.7954432553404 178.31748389220368 760.0329432553405 178.9375 760.0212537131229 178.25 C 760.0095641709053 177.5625 758.425 175.65 756.5 174 C 754.575 172.35 751.5375 170.72503819066688 749.75 170.3889737570375 C 747.9625 170.0529093234081 745.4875 170.2779093234081 744.25 170.8889737570375 L 742 172 L 743.5 169 C 744.325 167.35 746.2375 165.4591996367536 747.75 164.79822141500802 C 749.2625 164.13724319326244 753.65 163.57474319326244 757.5 163.54822141500802 L 764.5 163.5 L 764.148648133968 159 C 763.9554046076504 156.525 763.5661865069873 154.275 763.2837190213831 154 C 763.0012515357791 153.725 760.6843598754936 153.02559550295817 758.1350708874152 152.44576778435146 L 753.5 151.39153556870295 L 757.5 148.34046225791144 C 759.7 146.6623719369761 762.5125 144.77427643401793 763.75 144.14469447355995 C 765.7517586041421 143.12629357953216 766.1215507785912 143.30340615049303 767.1017068723977 145.75 C 767.7076456522165 147.2625 768.8419330000045 150.3 769.6223454230378 152.5 C 770.402757846071 154.7 771.0245046338692 157.85 771.004004951478 159.5 C 770.9835052690869 161.15 770.4117179212989 164.1747872234082 769.733366400838 166.22174938535156 C 769.0550148803771 168.2687115472949 768.8375 170.1812115472949 769.25 170.47174938535156 C 769.6625 170.7622872234082 771.8 170.1 774 169 L 778 167 L 777.3778794143351 170.75 L 776.7557588286702 174.5 L 780.8778794143351 178.25 C 783.1450457364508 180.3125 785.1125 182.01518623529577 785.25 182.0337471895462 C 785.3875 182.0523081437966 786.2586939215392 180.13980814379659 787.1859864923094 177.7837471895462 C 788.1132790630796 175.4276862352958 790.4757790630796 172.0375 792.4359864923094 170.25 C 794.3961939215393 168.4625 796.3375 166.98842861175802 796.75 166.97428580390675 C 797.1625 166.96014299605548 798.498883512929 167.97264299605547 799.719741139842 169.22428580390675 C 800.9405987667551 170.47592861175804 802.8530987667551 174.0875 803.969741139842 177.25 C 805.1456130800351 180.58024708759754 806 185.5249595607678 806 189 C 806 192.7740470103422 805.1835146070488 197.13320494842205 803.7991842682804 200.75 C 802.5887356158346 203.9125 800.2061429589303 208.3 798.504533919604 210.5 C 796.8029248802778 212.7 794.4182919595517 214.6125 793.2053496513237 214.75 C 791.9588084483244 214.89130879453188 790.7826175890638 214.34785276719123 790.5 213.5 C 790.2171717171717 212.65151515151516 791.7373737373738 210.04545454545453 794 207.5 C 796.2 205.025 797.9735366823837 202.2125 797.9411926275194 201.25 L 797.8823852550388 199.5 L 796.6911926275194 201.38650326889316 C 796.0360366823837 202.4240800667844 793.8125 205.0115800667844 791.75 207.13650326889316 C 788.6680871252131 210.31169268683854 788.0890782833618 211.5344697001705 788.5 214 C 788.7777777777778 215.66666666666666 788.5555555555555 217 788 217 C 787.45 217 787 217.675 787 218.5 C 787 219.325 785.8453282466239 222.8125 784.4340627702753 226.25 C 782.9966557195829 229.75117452709134 779.5881121331762 235.10797963408749 776.6840627702753 238.42975904570585 C 773.8328282466239 241.69112652084405 768.125 247.2632888178337 764 250.8123419279051 C 759.875 254.3613950379765 754.475 258.1657702525334 752 259.2665090713648 C 748.4808064749162 260.8316456063305 746.3012365306579 261.13402121709925 742 260.65382683818075 L 736.5 260.0398012980304 L 739 261.67489034210223 C 740.8721849906566 262.89936600878156 742.8811930205554 263.17220734583236 747 262.76136220479384 C 750.025 262.4596227550348 754.6375 262.61487739314566 757.25 263.10637251170687 C 759.8625 263.59786763026807 762.009287347788 264.3375 762.0206385506401 264.75 C 762.0319897534921 265.1625 761.3385405464161 267.525 760.4796403126934 270 C 759.6207400789707 272.475 757.6989527311827 276.1938881630407 756.2090017620533 278.2641959178683 C 754.719050792924 280.33450367269586 753.8375 282.2470036726958 754.25 282.5141959178683 C 754.6625 282.78138816304073 758.6401857022261 277.4875 763.0893015605023 270.75 C 767.5384174187786 264.0125 773.8703553689993 253.1 777.1602747832148 246.5 C 780.4501941974305 239.9 784.0100084952045 233.6 785.0709732227126 232.5 L 787 230.5 L 789.0063254704805 232.5 C 790.1098044792449 233.6 791.6827318669848 236.975 792.5017196654582 240 C 793.3207074639315 243.025 795.3395913660111 252.025 796.9881283367462 260 C 798.6366653074813 267.975 799.9887379197413 276.4125 799.9927341417686 278.75 C 799.9967303637959 281.0875 800.3375 283.00623706827014 800.75 283.01386015171136 C 801.1625 283.0214832351526 802.85 280.7652461668825 804.5 278 C 806.15 275.2347538331175 807.8375 272.9785167648474 808.25 272.98613984828864 C 808.6625 272.99376293172986 810.9125 274.73046967424455 813.25 276.84548816498784 L 817.5 280.6909763299757 L 803.75 287.34548816498784 L 790 294 L 783.25 292.3917148119251 C 778.9204971049413 291.3601480892806 775.6931676316863 289.92577943450055 774.25 288.3917148119251 C 772.4895014781431 286.52033241588174 772.0095491565583 284.8578298843329 772.0438928240578 280.75 C 772.0680338772895 277.8625 772.7203813089515 273.7 773.4935537833064 271.5 C 774.2667262576614 269.3 774.6969744868354 267.275 774.4496609592486 267 L 774 266.5 L 773.6324655498365 267 C 773.4303216022465 267.275 771.3962863995455 271.775 769.1123873216119 277 C 766.8284882436783 282.225 765.1886748424123 287.175 765.4683575410206 288 C 765.8903909845319 289.2449021431401 764.7056963454173 289.5 758.5022388109539 289.5 L 751.0276060834175 289.5 L 751.6380141455418 287.5 L 752.2484222076661 285.5 L 749.874211103833 287.61293052884093 C 748.4914228069581 288.84354376397994 744.7857307276411 290.23529757536346 741 290.94583484534246 C 737.425 291.61682042855585 732.475 293.03964197563306 730 294.107660505514 C 727.525 295.1756790353949 725.3875 296.0383720929692 725.25 296.0247561890124 C 725.1125 296.0111402850556 724.8470019958861 295.2125 724.6600044353024 294.25 C 724.4135145678642 292.981285602503 724.0697391375049 293.2788009365257 723.4100044353024 295.3317939116233 C 722.6719294648733 297.62856975853254 722.1221348859335 298.0196517488232 720.5 297.40174943666227 C 719.4 296.98273832404084 715.8 296.6084310638103 712.5 296.56995552503895 C 709.2 296.5314799862675 705.15 296.8490608369156 703.5 297.2756907487014 L 700.5 298.05138149740276 L 703 296.024303120691 C 704.375 294.90941001349955 707.525 292.81566289589574 710 291.3715317482381 C 712.475 289.9274006005805 715.371140849614 288.6905250331851 716.4358685546978 288.62291937624843 C 717.681730475324 288.54381247108 720.0993216134307 285.82675560901157 723.2186129969655 281 C 725.8843947351288 276.875 728.1183410578391 273.05 728.1829381585437 272.5 C 728.2475352592484 271.95 728.6152130879037 273.525 729 276 C 729.5180729564315 279.3323133580154 729.7385857221602 277.5807833950385 729.8498062837239 269.25 L 730 258 L 731.75 258.6134536125798 C 732.7125 258.9508530994987 734.4 259.43207361557677 735.5 259.68283253719767 C 736.6 259.9335914588186 731.2 257.01238215314146 723.5 253.19125630235953 C 715.8 249.37013045157758 708.7337321498128 245.40140993549952 707.7971825551396 244.3718773777416 C 706.8606329604663 243.34234481998374 702.7032027060218 234.85 698.558448656374 225.5 C 694.2411650336497 215.76079680749635 691.4569011483907 208.28644715272068 692.0395379494203 208 C 692.6533590030183 207.69822144297711 692.0581011255344 205.31956412725182 690.5380407638899 202 C 689.1528641510248 198.975 688.0026418193411 195.825 687.9819911379261 195 C 687.961340456511 194.175 688.2944444444441 193.83131491852868 688.7222222222221 194.23625537450815 C 689.15 194.64119583048762 690.3438946143744 193.29119583048762 691.3753213652765 191.23625537450815 C 692.4067481161785 189.18131491852867 693.7567481161785 187.1693907485327 694.3753213652765 186.76531277451707 C 694.9938946143744 186.36123480050145 696.4 186.02084400428856 697.5 186.00888878293284 C 698.6152628458394 185.99676767912212 700.2623738589377 187.2065073758186 701.223390625911 188.74357600841577 C 702.4961095330143 190.7791870169345 702.9537396814297 191.04236985158454 702.973390625911 189.75 C 702.98802578166 188.7875 703.225 188 703.5 188 C 703.775 188 705.575 188.9 707.5 190 C 709.425 191.1 710.9943585210814 191.6625 710.9874633801808 191.25 C 710.9805682392802 190.8375 709.0680682392801 188.5836948110436 706.7374633801808 186.24154402454135 L 702.5 181.9830880490827 L 704.3344555277629 173.74154402454135 C 705.3434060680326 169.2086948110436 706.9686419711898 163.7 707.9460908681124 161.5 C 708.9235397650349 159.3 711.5191327349501 155.475 713.7140752457016 153 C 715.9090177564531 150.525 720.1337818532959 146.64700424049195 723.1024399053522 144.38223164553767 C 726.0710979574085 142.1174590505834 729.625 139.57395348599957 731 138.72999705757363 L 733.5 137.1955308240719 L 730.3388226221061 143.34776541203595 C 728.6001750642645 146.73149443541618 726.0196173885207 153.325 724.6042500093422 158 C 723.1888826301638 162.675 721.7355175237611 168.75 721.3745497728919 171.5 C 721.0135820220228 174.25 720.9759389127336 176.275 721.2908984189157 176 C 721.605857925098 175.725 722.6129727698179 171.9 723.5289314071822 167.5 C 724.4448900445466 163.1 726.293708673238 156.575 727.637417248719 153 C 728.9811258241998 149.425 731.5249059059347 144.15184775601972 733.2902618747967 141.28188390226603 C 735.0556178436585 138.41192004851231 736.581295474827 136.16192004851231 736.6806566107267 136.28188390226603 Z " class="even" fill="#ffffff"></path><path d="M 180.5 145 C 181.37397788617687 145.825 182.05140047937246 147.625 182.00538354043465 149 L 181.92171637872957 151.5 L 180.43474492160806 148 C 179.6169106201912 146.075 178.9394880269956 144.275 178.92936138117338 144 C 178.91923473535115 143.725 179.62602211382313 144.175 180.5 145 Z " class="even" fill="#ffffff"></path><path d="M 145.5 151 C 145.775 151 146 151.675 146 152.5 C 146 153.325 145.55 154 145 154 C 144.45 154 144.225 153.325 144.5 152.5 C 144.775 151.675 145.225 151 145.5 151 Z " class="even" fill="#ffffff"></path><path d="M 135.12228431078947 153.75 C 135.73954068172367 154.1625 136.07704068172367 155.5035754823612 135.87228431078947 156.73016773858046 C 135.66752793985526 157.95675999479968 135.95 158.966487661091 136.5 158.9740069970056 C 137.05 158.9815263329202 138.85 158.3137831830989 140.5 157.49013333073609 C 142.90751537028822 156.28834564631237 143.75566212442706 156.24018864206664 144.79452535106986 157.24629407231095 C 145.83596793525243 158.25489752689634 146.0716410793215 158.20674645342615 146 157 C 145.92717382711686 155.77329143173668 146.19235299422522 155.72774285978056 147.45547464893014 156.75 C 148.30496359201857 157.4375 149.45 157.775 150 157.5 C 150.55 157.225 151 157.675 151 158.5 C 151 159.44217089578243 149.60542723945605 160.26042761631714 147.25 160.7002887112239 C 145.1875 161.08544750239702 143.05 161.48354011601342 142.5 161.5849389637047 C 141.95 161.68633781139602 141.275 161.855637964096 141 161.96116152526017 C 140.725 162.06668508642434 139.825 162.33110795910792 139 162.54876790900147 C 138.175 162.766427858895 134.6875 163.6319977861443 131.25 164.47225663622214 L 125 166 L 124.25 164.41287390328634 C 123.77960633989935 163.41744183172048 124.0592126797987 162.49112943050454 125 161.9281866778034 C 125.825 161.4345280569803 127.2875 161.02373480050144 128.25 161.01531277451704 C 129.2125 161.00689074853267 130.9 160.55 132 160 C 133.33333333333334 159.33333333333334 134 158 134 156 C 134 154.00322638293395 134.37530174324561 153.25080659573348 135.12228431078947 153.75 Z " class="even" fill="#ffffff"></path><path d="M 177.72222222222223 153.3382907790325 C 178.15 153.7993507075004 178.5 155.4439741673807 178.5 156.99300957876653 C 178.5 158.54204499015233 178.1625 159.62731413958772 177.75 159.404718799734 C 177.3375 159.1821234598803 176.9875 157.5375 176.97222222222223 155.75 C 176.95694444444445 153.9625 177.29444444444445 152.87723085056462 177.72222222222223 153.3382907790325 Z " class="even" fill="#ffffff"></path><path d="M 132.75 155.0996800253506 C 132.8875 155.04485601140777 132.9910754823612 155.5625 132.98016773858046 156.25 C 132.9675035551963 157.04820595822773 131.97355666329727 157.3429724914224 130.23016773858046 157.06554454558093 L 127.5 156.63108909116187 L 130 155.91522457093157 C 131.375 155.52149908480487 132.6125 155.15450403929347 132.75 155.0996800253506 Z " class="even" fill="#ffffff"></path><path d="M 165.5 169 C 166.325 169 167 169.225 167 169.5 C 167 169.775 166.55 170.225 166 170.5 C 165.45 170.775 164.775 170.55 164.5 170 C 164.225 169.45 164.675 169 165.5 169 Z " class="even" fill="#ffffff"></path><path d="M 692.5050880991264 171 C 693.1901886971524 172.375 694.0318123013142 174.5125 694.3753627750414 175.75 C 694.9028073528233 177.64990325998895 694.61100362221 178 692.5 178 C 691.0549757380142 178 689.315091556433 178.94947816421276 688.3769568842022 180.25 C 687.4842831705133 181.4875 686.9687378672706 181.825 687.2313006547738 181 C 687.493863442277 180.175 688.5076092402243 177.025 689.4840690946565 174 L 691.2594506481698 168.5 L 692.5050880991264 171 Z " class="even" fill="#ffffff"></path><path d="M 797.4094827934864 170.16733502840805 C 796.2503626809931 169.96539623083962 794.4193422534258 171.04605397741378 792.75 172.91733502840805 C 791.2375 174.61280076278362 789.7420036264105 177.4625 789.4266747253565 179.25 C 789.1113458243026 181.0375 788.9988458243026 184.075 789.1766747253565 186 C 789.4667724070105 189.14031090488797 789.8083049386674 189.50384060012007 792.5 189.53737144273467 C 794.5501283954709 189.56291019471135 795.5791559670441 190.11700196402 795.75 191.28737144273467 C 795.9099993217884 192.38344907328604 795.4111818055148 192.90999932178838 794.364406229527 192.75 C 793.4094604511437 192.6040368342643 791.9529447714436 193.8524788454357 790.864406229527 195.75 C 789.4177522488603 198.27178166040537 789.2240671814137 199.56016795353435 790 201.5 C 790.55 202.875 791.45 204 792 204 C 792.55 204 794.1272191423919 202.3125 795.5049314275376 200.25 C 796.8826437126833 198.1875 798.0150954016442 195.375 798.0214907363397 194 C 798.0278860710351 192.625 797.5756669286432 190.0375 797.016559308802 188.25 C 796.457451688961 186.4625 795.2125 184.780381661187 794.25 184.5119592470822 C 793.2875 184.2435368329774 792.5 183.39008482462006 792.5 182.61539922851034 C 792.5 181.55946109423826 793.3181395324829 181.36872713698673 795.7683691523093 181.85343998142812 C 798.0650347436839 182.30777426198614 799.0312770577772 182.12836834073337 799.0183691523093 181.25 C 799.0082661185393 180.5625 798.1 180 797 180 C 795.9 180 794.8286511848772 179.2125 794.6192248552827 178.25 C 794.4097985256883 177.2875 794.6347985256883 175.7125 795.1192248552827 174.75 C 795.8420306161001 173.313867192419 796.2770147631772 173.22419085172785 797.5445253510699 174.25 C 798.3940142941583 174.9375 799.0690142941583 176.0625 799.0445253510699 176.75 C 799.0200364079815 177.4375 799.5384610491342 178.3375 800.196580109187 178.75 C 801.0783570788517 179.30268571002551 801.2051815472354 178.71074284010209 800.6786453022355 176.5 C 800.2856620983594 174.85 799.818968306294 172.825 799.641547986535 172 C 799.4641276667759 171.175 798.459698329904 170.3503007627836 797.4094827934864 170.16733502840805 Z " class="odd" fill="#000000"></path><path d="M 142.25 171.97222222222223 C 141.8375 171.95694444444445 141.12776914011667 172.29444444444445 140.6728203113704 172.72222222222223 C 140.21787148262413 173.15 137.06787148262413 173.38114124022596 133.6728203113704 173.23586942272436 C 130.27776914011667 173.0905976052228 126.7125 173.20309760522278 125.75 173.48586942272436 C 124.2346651986386 173.93105796911854 124.16761799902757 174.3328956226603 125.25 176.48254680726095 C 125.9375 177.84794755125446 127.73750000000001 179.42294755125445 129.25 179.98254680726095 C 131.03042442263722 180.64127353934924 131.8237135313886 181.52885940583423 131.5 182.5 C 131.225 183.325 131.5625 184.00258192102666 132.25 184.0057376022815 C 132.9375 184.00889328353634 135.6375 181.98389328353633 138.25 179.5057376022815 C 140.8625 177.02758192102667 143 174.325 143 173.5 C 143 172.675 142.6625 171.9875 142.25 171.97222222222223 Z " class="odd" fill="#000000"></path><path d="M 200.75 180.49018377064317 C 200.6125 180.2097848444969 200.1625 180.65978484449693 199.75 181.49018377064317 C 199.3375 182.32058269678942 199.01368390865534 183.3375 199.03040868590074 183.75 C 199.04713346314617 184.1625 199.49713346314616 183.7125 200.03040868590074 182.75 C 200.56368390865535 181.7875 200.8875 180.77058269678943 200.75 180.49018377064317 Z " class="odd" fill="#000000"></path><path d="M 753.25 184.97222222222223 C 752.2875 184.95694444444445 751.15 185.29444444444445 750.7222222222222 185.72222222222223 C 750.2944444444445 186.15 749.936908036463 188.075 749.9276968711524 190 C 749.9184857058417 191.925 750.6266682402495 194.175 751.5014358365031 195 L 753.0919223751459 196.5 L 755.573529572411 195 C 757.2669063549223 193.9764435013864 758.0463802511429 192.62652024745827 758.0275683848381 190.75 C 758.0124057731771 189.2375 757.325 187.325 756.5 186.5 C 755.675 185.675 754.2125 184.9875 753.25 184.97222222222223 Z " class="odd" fill="#000000"></path><path d="M 135 187 C 135.55 187 136 187.225 136 187.5 C 136 187.775 135.325 188.225 134.5 188.5 C 133.675 188.775 133.225 188.55 133.5 188 C 133.775 187.45 134.45 187 135 187 Z " class="even" fill="#ffffff"></path><path d="M 703.5 192 C 702.675 192 701.2429529195491 193.2375 700.3176731545534 194.75 C 699.0617659435953 196.80295709301842 698.7856517213362 198.7673507399665 699.228336897621 202.5 C 699.5544817213038 205.25 700.7615288017547 210.0875 701.9106637430675 213.25 C 703.3753717519536 217.2809792275657 704.5231802350887 218.99542209087332 705.75 218.98468722548296 C 706.7125 218.97626519949856 708.175 218.5403556526009 709 218.01599934348815 C 710.1174546966863 217.3057636824516 709.7349093933725 217.11839625077621 707.5 217.2813121180052 L 704.5 217.5 L 702.2854036212868 211 C 701.0673756129945 207.425 700.0548756129945 202.8125 700.0354036212868 200.75 C 700.0159316295791 198.6875 700.45 196.1 701 195 C 701.55 193.9 702.7875 193.00945231638542 703.75 193.0210051475231 C 704.7125 193.03255797866083 706.524071388242 194.04505797866085 707.7757141960933 195.2710051475231 C 709.052456396758 196.52153643045276 710.0401406119256 196.95128654712911 710.0257141960933 196.25 C 710.0115713882419 195.5625 708.875 194.325 707.5 193.5 C 706.125 192.675 704.325 192 703.5 192 Z " class="odd" fill="#000000"></path><path d="M 738.5496031746031 195 C 738.2167658730159 194.725 737.9924707602339 195.4 738.0511695906432 196.5 C 738.12550503411 197.89302584469118 738.3091628886428 198.04476938351837 738.656328320802 197 C 738.9304667919799 196.175 738.8824404761905 195.275 738.5496031746031 195 Z " class="odd" fill="#000000"></path><path d="M 765.8460120284813 196.23243600594472 C 763.286318644146 196.37959620267512 761.373818644146 196.8375 761.5960120284813 197.25 C 761.8182054128166 197.6625 760.9875 197.93099781747932 759.75 197.84666181662072 C 758.5125 197.7623258157621 755.925 198.0147067568234 754 198.40750835231245 C 752.075 198.80030994780154 748.7 199.92118007601212 746.5 200.8983308594471 C 744.3 201.87548164288208 741.825 203.51801923449395 741 204.54841439636238 C 739.7529782606375 206.10589944725186 740.0481195647146 206.04898198244118 742.75 204.21093007260703 C 744.5375 202.99491853267315 746.225 202 746.5 202 L 747 202 L 746.5 203 L 746 204 L 748 203 C 749.1 202.45 750.45 202.225 751 202.5 C 751.55 202.775 754.475 201.875 757.5 200.5 C 760.525 199.125 764.0125 197.99310925146733 765.25 197.98468722548296 C 766.4875 197.97626519949856 768.175 197.5183614021737 769 196.96712323142765 C 770.0878333259635 196.24026837969353 769.2211875045155 196.0383926529039 765.8460120284813 196.23243600594472 Z " class="odd" fill="#000000"></path><path d="M 756.5 199.0708708314588 C 757.05 199.0708708314588 756.375 199.71397895730234 755 200.5 C 753.625 201.28602104269766 752.05 201.9291291685412 751.5 201.9291291685412 C 750.95 201.9291291685412 751.625 201.28602104269766 753 200.5 C 754.375 199.71397895730234 755.95 199.0708708314588 756.5 199.0708708314588 Z " class="even" fill="#ffffff"></path><path d="M 712.25 203.96740526445387 C 711.5625 203.98533236900425 710.9923575436475 205.2375 710.983016763661 206.75 C 710.9736759836745 208.2625 711.5361759836745 210.34256278617886 712.233016763661 211.37236174706416 C 713.2827108534651 212.92361120601333 713.8858777019941 213.052237106678 715.75 212.12236174706416 C 717.3139018905993 211.3422445656553 717.8011841475244 210.46636813713275 717.3480004361754 209.25 C 716.9894006760718 208.2875 715.9769006760719 206.69783236900426 715.0980004361754 205.71740526445387 C 714.2191001962789 204.73697815990352 712.9375 203.94947815990352 712.25 203.96740526445387 Z " class="odd" fill="#000000"></path><path d="M 188.75 207.52380952380952 C 188.3375 207.2357142857143 187.49743329366623 208.0125 186.88318509703606 209.25 L 185.76637019407215 211.5 L 187.63318509703606 209.77380952380952 C 188.65993329366623 208.82440476190476 189.1625 207.81190476190474 188.75 207.52380952380952 Z " class="odd" fill="#000000"></path><path d="M 749.9842516087188 210.25125311672562 C 749.1679132239234 210.1144423309247 747.825 210.44505158239204 747 210.98594034220855 C 745.7543017209613 211.8026484600932 745.8390689612818 211.96914491956346 747.5 211.96802055881628 C 748.6 211.967275918134 750.1061790992128 212.53666666666666 750.8470646649173 213.23333333333335 C 751.9528757994202 214.27314540782635 752.1291510604403 214.14180853867316 751.8313162736359 212.5 C 751.6317690927267 211.4 750.800589993514 210.38806390252654 749.9842516087188 210.25125311672562 Z " class="odd" fill="#000000"></path><path d="M 720.8197638650429 212.11893755696184 C 720.6438937392693 211.35935321329083 719.9197789307146 212.93435321329082 719.2106198460326 215.61893755696184 C 718.5014607613506 218.30352190063283 717.8264607613505 221.4 717.7106198460326 222.5 C 717.5429069630962 224.09256486124704 718.4167290621941 224.7357296014749 722 225.65713927962332 L 726.5 226.81427855924665 L 729.25 223.90713927962332 C 730.8152032905244 222.2524978372672 731.6768736246885 220.51797638125672 731.25 219.88118785193893 C 730.7811783324299 219.18182334933672 729.1878344486603 219.014595884605 727 219.43513428349743 C 725.075 219.8051515022882 722.1588869837137 221.0961169689157 720.5197488526971 222.30394643155853 L 717.5394977053944 224.5 L 718.3782000687714 222.5 C 718.8394863686287 221.4 719.6494931241843 218.925 720.1782150811172 217 C 720.70693703805 215.075 720.9956339908166 212.87852190063282 720.8197638650429 212.11893755696184 Z " class="odd" fill="#000000"></path><path d="M 748 215.57022678426762 C 747.725 215.36129749163166 745.7 217.23789737408592 743.5 219.74044874527712 C 741.2693400486298 222.2778765270783 736.9565736800946 225.5532887017546 733.75 227.14527107372146 C 730.5875 228.71537198317466 728 230.225 728 230.5 C 728 230.775 729.6875 230.3041779989792 731.75 229.4537288866205 C 733.8125 228.60327977426178 737.2541776019499 226.69077977426176 739.3981724487776 225.2037288866205 C 741.5421672956052 223.71667799897924 744.4671672956051 221.02627210072038 745.8981724487776 219.225049112712 C 747.3291776019499 217.42382612470357 748.275 215.7791560769036 748 215.57022678426762 Z " class="odd" fill="#000000"></path><path d="M 147 217 C 146.45 217 146.225 217.45 146.5 218 C 146.775 218.55 147.45 219 148 219 C 148.55 219 148.775 218.55 148.5 218 C 148.225 217.45 147.55 217 147 217 Z " class="odd" fill="#000000"></path><path d="M 715.25 217.97131924375282 C 714.2875 217.95554482781688 711.5875 219.30554482781687 709.25 220.97131924375282 C 706.9125 222.6370936596888 705 224.225 705 224.5 C 705 224.775 705.5625 224.67515413018188 706.25 224.2781202892931 C 706.9375 223.8810864484043 707.95 223.48520460358642 708.5 223.39838285636455 C 709.05 223.31156110914264 711.1875 222.28640697896074 713.25 221.12026256707145 C 715.3125 219.95411815518216 717 218.775 717 218.5 C 717 218.225 716.2125 217.98709365968878 715.25 217.97131924375282 Z " class="odd" fill="#000000"></path><path d="M 212.5 222.230779618462 C 210.3 222.19289310831846 206.91728772954596 222.91296866728763 204.98286162121326 223.83094752728232 C 203.04843551288056 224.74892638727704 199.89843551288055 226.58136878125936 197.98286162121326 227.9030417361319 C 196.06728772954597 229.22471469100444 192.08923906537967 232.59971469100444 189.1427534786215 235.4030417361319 C 184.66805219922466 239.66033427873717 183.905887823181 240.0881535232419 184.5162456713727 238 C 184.91815196414407 236.625 186.0905683402731 233.7 187.12161539610395 231.5 C 188.56925101764367 228.41110279654396 188.7119542714539 227.33265610356935 187.7481232033527 226.76531277451704 C 187.06165544150872 226.36123480050145 186.275 226.04632638621973 186 226.06551629833547 C 185.725 226.08470621045123 184.19401825786437 228.89031546191856 182.5978183508097 232.30020352381842 C 181.00161844375504 235.7100915857183 179.26349589464382 241.425 178.7353237972292 245 L 177.775010892839 251.5 L 180.88750544641948 257.25 C 182.59937745088877 260.4125 184.225 263 184.5 263 C 184.775 263 184.04695315738138 261.0875 182.8821181275142 258.75 C 181.26400441946632 255.50289573580807 180.9033547266101 253.4381103973797 181.3537825888214 250 C 181.67803307240757 247.525 182.7957913747085 244.375 183.83768992726795 243 L 185.73205093192144 240.5 L 187.96069479796824 246.5 C 189.18644892429396 249.8 191.38423746461166 254.12062569519003 192.84466933200753 256.10139043375557 L 195.5 259.7027808675112 L 200 259.2032947868924 C 202.80640947867516 258.89179201553355 204.78226508688746 259.1358984629629 205.25 259.8519043531368 C 205.6625 260.48335695891154 206.9 261 208 261 C 209.1 261 210 260.55 210 260 C 210 259.45 209.325 259.225 208.5 259.5 C 207.675 259.775 206.4375 259.7118739694609 205.75 259.35971993213536 C 204.8759599600081 258.9120155992374 205.25191992001618 258.13399599565565 207 256.7729431262854 C 208.375 255.70236992039344 209.05 255.07081253101796 208.5 255.36948226100657 C 207.95 255.6681519909952 205.7 256.1817088068686 203.5 256.5107196296141 C 199.90048657823473 257.0490282079679 199.19069372173124 256.7780730995924 196.4106951885165 253.8044605627575 C 194.71157754220062 251.98700725324088 192.3490775422006 248.1375 191.1606951885165 245.25 C 189.97231283483245 242.3625 188.99184404107552 239.4375 188.98187564683448 238.75 C 188.97190725259344 238.0625 190.43440725259345 236.1027356499567 192.23187564683448 234.39496811101492 C 194.02934404107552 232.68720057207312 197.525 229.9557797057167 200 228.3251439635562 C 202.475 226.6945082213957 205.85 224.84746111885977 207.5 224.2205948468097 C 209.15 223.5937285747596 211.85 222.9050738821469 213.5 222.6902510854481 C 215.84994868161235 222.38429802612526 215.63326490881647 222.28473801516668 212.5 222.230779618462 Z " class="odd" fill="#000000"></path><path d="M 156 224 C 154.9 224 153.2125 225.04781367992194 152.25 226.32847484427097 C 151.2875 227.60913600862 149.825 228.4748770617712 149 228.25234385127362 L 147.5 227.84773801400527 L 149 228.8565374956836 C 150.32376721475418 229.7468146157548 150.29021015442805 230.49006240557205 148.71438010005357 235.18266848868097 C 147.73228915508304 238.10720081990644 146.65385679009248 242.075 146.31786373340788 244 C 145.8953622442541 246.4206314697285 146.21712259775416 248.2709775216225 147.36121566156436 250 L 149.01546405642011 252.5 L 149.00773202821006 249.25 C 149.00347941269453 247.4625 149.7875 244.41774062267928 150.75 242.48386805039837 C 151.7125 240.54999547811747 152.63041919032196 239.0874954781175 152.7898204229377 239.23386805039837 C 152.94922165555346 239.38024062267925 152.61172165555345 241.4125 152.0398204229377 243.75 C 151.25923854699604 246.94042875055246 151.3116386027787 248.49944862791358 152.25 250.0033165959717 C 152.97292345655865 251.16191224248465 154.5541530868827 251.99241254794669 156 251.97290791007094 C 158.1564516437428 251.94381713425912 158.25951615061996 251.80594202731848 156.75 250.96959131409926 C 155.6231666328525 250.34526683111443 155.01563002478542 248.84269053898822 155.04389282405782 246.75 C 155.06803387728962 244.9625 155.71588231918062 241.7 156.48355602826 239.5 C 157.25122973733943 237.3 157.68147796651343 235.1625 157.4396632042022 234.75 C 157.19784844189098 234.3375 156.325 234 155.5 234 C 154.675 234 153.32152058730549 235.0125 152.49226797178994 236.25 C 151.50234161182635 237.72727465374754 150.99473386740638 237.98484976916504 151.01422997228087 237 C 151.0305616880664 236.175 151.85867575461643 233.7 152.85448345350318 231.5 C 153.85029115238993 229.3 155.41540825216902 226.7125 156.33252145301225 225.75 L 158 224 L 156 224 Z " class="odd" fill="#000000"></path><path d="M 146.75 225.41666666666669 C 146.0625 225.37083333333334 144.9375 225.48333333333335 144.25 225.66666666666669 C 143.5625 225.85 142.55 227.575 142 229.5 C 141.42857142857142 231.5 140.35714285714286 233 139.5 233 C 138.53570693189752 233 138.18973643248896 233.6249914205471 138.53126930376902 234.75 C 138.82346742084195 235.7125 138.53261074835538 239.2 137.88492114268772 242.5 C 136.95637741695248 247.2309610469471 136.97572162764482 249.2402727226142 137.97638032435793 252 L 139.24545697087848 255.5 L 136.87272848543924 257.31765926115213 L 134.5 259.1353185223042 L 133.2910885008298 256.31765926115213 L 132.0821770016596 253.5 L 132.5410885008298 256.25 C 132.87179488640578 258.23173844407563 132.5809482422231 259 131.5 259 C 130.675 259 129.775 258.55 129.5 258 C 129.225 257.45 129.5625 256.81052631578945 130.25 256.57894736842104 C 130.9375 256.34736842105264 130.7125 256.1223684210526 129.75 256.07894736842104 C 128.65534979423867 256.0295646523717 128.1872427983539 255.43827160493828 128.5 254.5 C 128.775 253.675 128.55 253 128 253 C 127.44999999999999 253 126.8875 254.0125 126.75 255.25 C 126.5602574886244 256.9576826023804 127.34360484074168 257.8946439405874 130 259.13732321739826 L 133.5 260.77464643479647 L 131.25 261.38732321739826 C 130.0125 261.7242954478292 128.775 262.9 128.5 264 C 128.18205128205128 265.2717948717949 127.18076923076924 265.989886039886 125.75 265.9722222222222 C 124.5125 265.9569444444444 123.725 266.2192205322829 124 266.5550579729745 C 124.275 266.89089541366604 125.7375 266.9033954136661 127.25 266.58283575075234 C 128.7625 266.26227608783853 130.00048530554417 265.4375 130.00107845676482 264.75 C 130.00167160798546 264.0625 132.25167160798546 261.8125 135.00107845676482 259.75 L 140 256 L 141.75 258.0325947355461 C 142.7125 259.1505218400965 144.2875 260.0505218400965 145.25 260.0325947355461 C 146.2125 260.01466763099575 147.225 259.1 147.5 258 L 148 256 L 147.5 255 C 147.225 254.45 145.65 254 144 254 C 142.22222222222223 254 140.7962962962963 253.38888888888889 140.5 252.5 C 140.225 251.675 140 249.875 140 248.5 C 140 247.125 140.5625 243.67429833471343 141.25 240.83177407714092 C 142.09585579477925 237.33451500067798 143.06580188730905 235.55628049770667 144.25 235.33177407714092 C 145.2125 235.14929833471342 146 234.55 146 234 C 146 233.45 145.51287253518205 232.8875 144.91749452262678 232.75 C 144.18234777774904 232.5802210103681 144.26256878811714 231.60832416625212 145.16749452262678 229.72118984273408 C 145.90037253518207 228.19284425623783 146.8375 226.95534425623785 147.25 226.97118984273408 C 147.6625 226.98703542923033 148 226.6625 148 226.25 C 148 225.8375 147.4375 225.4625 146.75 225.41666666666669 Z " class="odd" fill="#000000"></path><path d="M 168.75 225.0996800253506 C 168.6125 225.15450403929347 167.375 225.5596480278857 166 226 L 163.5 226.80063994929876 L 165.75 226.9003199746494 C 166.9875 226.95514398859223 168.225 226.55 168.5 226 C 168.775 225.45 168.8875 225.04485601140777 168.75 225.0996800253506 Z " class="odd" fill="#000000"></path><path d="M 111.75 225.9818756468345 C 110.49696261702658 225.97178209480845 108.11311158569174 227.4118392082913 106.36999404099987 229.2318756468345 C 104.6484907635498 231.02934404107552 102.7359907635498 233.5125 102.11999404099987 234.75 C 101.20725850765335 236.58363024699335 100.62989355288299 236.8149467764415 99 236 C 97.9 235.45 95.9875 234.98533236900425 94.75 234.96740526445387 C 93.5125 234.94947815990352 91.72387519315023 235.73697815990352 90.77527820700051 236.71740526445387 C 89.82668122085079 237.69783236900426 89.03570180815626 238.95 89.01754617879044 239.5 C 88.99939054942463 240.05 89.6630153562744 239.4875 90.49226797178994 238.25 C 91.32152058730547 237.0125 92.7875 235.99235754364744 93.75 235.983016763661 C 94.7125 235.97367598367458 96.3471611717685 236.53617598367458 97.3825803817078 237.233016763661 L 99.2651607634156 238.5 L 97.49118640518533 243.5 C 96.08710958620091 247.45743267784644 95.95520805928011 248.9691552949691 96.85860602347753 250.75 C 97.4863727105649 251.9875 98.45 252.775 99 252.5 C 99.55 252.225 100.225 252.675 100.5 253.5 C 100.775 254.325 101.45 255 102 255 C 102.55 255 102.26878292009168 253.5375 101.37507315575928 251.75 C 100.31963737423165 249.63903340348983 99.96916555777324 247.36096659651017 100.37507315575928 245.25 L 101 242 L 103.25 243.11349433293066 C 104.4875 243.72591621604255 106.4712819132957 244.06341621604253 107.65840425176822 243.86349433293066 L 109.81680850353645 243.5 L 110.16332570064759 250 C 110.35870767458037 253.66499221727167 110.07154133951201 256.7769629303039 109.50492144887936 257.13501026626557 C 108.93417742902365 257.49566364113605 109.30185889186775 258.14374030848325 110.35593525951955 258.63501026626557 C 111.99614159549097 259.3994559194985 112.05426025088092 259.76525149253104 110.85593525951955 261.78198235791353 C 110.02683808566823 263.177318241719 108.72291557510658 263.9544026666124 107.5 263.78198235791353 C 105.89013363007041 263.5550054004543 105.5372724993303 262.81726614737676 105.69107555184911 260 C 105.82789884417852 257.4937582620139 105.61929841551573 256.925896398006 104.95638832636617 258 C 104.44721879883355 258.825 104.02373480050144 260.5125 104.01531277451707 261.75 C 104.00570045056621 263.1623977901808 104.93361192919991 264.46533456101065 106.50790508438755 265.25 C 108.69354570135653 266.3393756658572 109.40029277158501 266.2108761985429 112.00790508438755 264.25 L 115 262 L 118.25 263.9693744509659 C 120.0375 265.05253039899713 121.95 265.9585376488523 122.5 265.9827238950886 C 123.05 266.00691014132485 121.61970663732299 264.7831916383902 119.32157030516221 263.2633494441227 L 115.14314061032442 260.5 L 118.47781664983867 254 C 120.49938189707528 250.05953503388835 122.10394750249107 245.13735227641075 122.55264910851311 241.5 C 123.1280159180598 236.83584960163256 122.98190818170832 235.30743233306592 121.89640276383665 234.63507778106728 C 120.95430725235151 234.05155033372716 119.84931774110316 234.47486634723253 118.5 235.9362228721385 C 117.13667918987821 237.41274519206496 116.97750939240865 237.932303715418 118 237.56831178477415 C 119.30900287224664 237.10232561419232 119.34728887750607 237.76430318433358 118.30067995558193 242.76716669370293 C 117.641053931152 245.92022501216633 116.23650758731108 250.525 115.17946585815767 253 L 113.25757180515146 257.5 L 112.05070094858502 253 C 111.31309813280986 250.24973666160813 111.09950546206579 246.1670177845225 111.5013799910731 242.5 C 111.86303243555308 239.2 112.56216997490728 234.7 113.05501896741575 232.5 C 113.54786795992422 230.3 113.96210873464551 227.9375 113.97555402235194 227.25 C 113.98899931005838 226.5625 112.9875 225.99184404107552 111.75 225.9818756468345 Z " class="odd" fill="#000000"></path><path d="M 124.18134420367853 227.25179445446713 L 123.5 226.00358890893423 L 122.23333333333333 227.25179445446713 C 121.53666666666666 227.9383075045102 120.97416666666666 229.0625 120.98333333333333 229.75 C 120.9925 230.4375 121.45 231.225 122 231.5 C 122.55 231.775 123.41910489165534 231.2125 123.93134420367853 230.25 C 124.44358351570173 229.2875 124.55608351570173 227.9383075045102 124.18134420367853 227.25179445446713 Z " class="odd" fill="#000000"></path><path d="M 134.25 226.5645805886208 C 133.8375 226.32509991236222 132.97885622668855 226.88759991236222 132.3419027259746 227.8145805886208 C 131.60947249968615 228.88051187829262 131.5175831875178 230.05133587301017 132.0919027259746 231 L 133 232.5 L 133.98468722548296 231 C 134.52626519949857 230.175 134.97626519949856 228.9375 134.98468722548296 228.25 C 134.99310925146733 227.5625 134.6625 226.80406126487935 134.25 226.5645805886208 Z " class="odd" fill="#000000"></path><path d="M 160 226.50685043730982 C 159.725 226.2172848444969 159.13583945646138 226.7722848444969 158.69075434769198 227.74018377064317 C 158.03580349414224 229.16446468981854 158.1311359795984 229.26484653587474 159.19075434769198 228.26666666666665 C 159.9108394564614 227.58833333333334 160.275 226.79641603012277 160 226.50685043730982 Z " class="odd" fill="#000000"></path><path d="M 237.5 228.05116959064327 C 236.10697415530885 228.12550503410998 235.95523061648163 228.30916288864293 237 228.656328320802 C 237.825 228.93046679197994 238.725 228.88244047619048 239 228.5496031746032 C 239.275 228.21676587301587 238.6 227.99247076023394 237.5 228.05116959064327 Z " class="odd" fill="#000000"></path><path d="M 111.717738312719 229.21102130091538 C 111.83749438471447 229.36995958541192 111.38749438471447 232.31989607881482 110.717738312719 235.76643573069958 C 110.04798224072356 239.21297538258435 108.9375 242.25047538258434 108.25 242.51643573069958 C 107.5625 242.78239607881483 105.875 242.55 104.5 242 C 102.9585933956364 241.38343735825455 102.2568629039051 240.5207033021818 102.66989535154939 239.75 C 103.03833779490155 239.0625 105.17583779490155 236.3449595854119 107.41989535154939 233.71102130091538 C 109.66395290819722 231.07708301641884 111.59798224072355 229.05208301641883 111.717738312719 229.21102130091538 Z " class="even" fill="#ffffff"></path><path d="M 240.25 228.95547464893014 C 240.1125 228.97996359201855 239.97996359201855 229.1125 239.95547464893014 229.25 C 239.9309857058417 229.3875 240.7184857058417 230.175 241.70547464893014 231 L 243.5 232.5 L 242 230.70547464893014 C 241.175 229.7184857058417 240.3875 228.9309857058417 240.25 228.95547464893014 Z " class="odd" fill="#000000"></path><path d="M 742.25 232.01684675686266 C 741.2875 232.02611247313715 739.0375 232.92611247313715 737.25 234.01684675686266 C 735.4625 235.1075810405882 734.0017684777623 236.3375 734.0039299505829 236.75 C 734.0060914234034 237.1625 735.2435914234035 237.450388123703 736.7539299505829 237.38975138600665 C 738.2642684777622 237.32911464831034 740.5125 236.76661464831034 741.75 236.13975138600665 C 742.9875 235.512888123703 744 234.325 744 233.5 C 744 232.675 743.2125 232.0075810405882 742.25 232.01684675686266 Z " class="odd" fill="#000000"></path><path d="M 238.5 234.94487387098414 L 236.5 232.83604062621902 L 234.2154145981621 235.6680203131095 C 232.95889262715124 237.22560914089928 231.92679464767824 238.725 231.92186353266652 239 C 231.91693241765478 239.275 231.5230402999609 241.525 231.046547715569 244 C 230.43664956755248 247.16793579960404 230.5235448709602 248.71747790034536 231.3400987810646 249.23468722548296 C 231.97804445147906 249.63876519949855 232.8375 249.97626519949856 233.25 249.98468722548296 C 233.6625 249.99310925146733 234.31275358990823 248.9875 234.69500797757382 247.75 L 235.39001595514765 245.5 L 235.94500797757382 248.4850440003688 C 236.25025358990823 250.12681820057162 237.175 251.6038910872573 238 251.76742819300358 C 238.825 251.9309652987499 240.4 251.40846102354712 241.5 250.60630758144185 L 243.5 249.14784677761412 L 241.5 249.32392338880706 C 239.93022453873363 249.46212376058386 239.5529717327151 248.96221932658298 239.74625156375794 247 C 239.88168992382484 245.625 240.10668992382483 242.82458410104357 240.24625156375794 240.77685355787463 C 240.42396246324034 238.1693746195468 239.90068567211088 236.42178012639096 238.5 234.94487387098414 Z " class="odd" fill="#000000"></path><path d="M 132 234.9626592062564 C 130.94442733216573 234.31891185225243 129.98150144580666 234.63335259719994 128.75 236.02393758245987 C 127.7875 237.11077191210694 127.45672922392441 238.1125 128.0149538309431 238.25 C 128.6761069712129 238.41285300870666 128.72644841197086 240.06864584328 128.15936914583483 243 C 127.41243494826531 246.86106281007375 127.58779426575117 247.88199547288198 129.39441531489172 250.1903734123964 L 131.5 252.8807468247928 L 131.2048034077995 249.6903734123964 C 131.0424452820892 247.93566803557837 131.4924452820892 244.10992473070843 132.2048034077995 241.18872162379654 C 133.3249817863204 236.5951493158116 133.29730697092603 235.75382968206836 132 234.9626592062564 Z " class="odd" fill="#000000"></path><path d="M 200 234 C 199.45 234 198.35190276192046 235.0125 197.55978391537883 236.25 C 196.76766506883718 237.4875 195.8035396955411 240.75 195.41728308583203 243.5 C 194.88733872435995 247.27300208570136 195.05671746360906 248.7225048938692 196.10749917045322 249.40670445025327 C 197.0919656636815 250.0477239251399 198.1593010483272 249.53493422088545 199.75 247.65670445025327 L 202 245 L 202 248 C 202 249.9913169040981 202.58839847260944 251.17577752986625 203.75 251.52279312674244 C 204.7125 251.81032934645077 205.95 251.57782934645076 206.5 251.00612646007576 L 207.5 249.96666666666667 L 206.5 249.9721950036138 C 205.8610337822111 249.97572742416355 205.77452882160756 247.90580040615325 206.26039649233442 244.23886167028047 C 206.67861456311834 241.08248775162622 207.12861456311836 237.6484329446064 207.26039649233442 236.60762876579201 C 207.39217842155048 235.56682458697765 206.9375 234.55432458697766 206.25 234.35762876579201 C 205.5625 234.1609329446064 204.990113013073 234.5625 204.97802891793998 235.25 C 204.965944822807 235.9375 203.74394741527266 238.525 202.26247912341927 241 C 200.3871392439388 244.13301757940934 199.48249187086444 244.96839572532585 199.2844502054793 243.75 C 199.1280025924657 242.7875 199.675 240.65 200.5 239 C 201.325 237.35 201.775 235.55 201.5 235 C 201.225 234.45 200.55 234 200 234 Z " class="odd" fill="#000000"></path><path d="M 215 234 C 214.45 234 213.3869929042043 235.2375 212.6377620093429 236.75 C 211.8885311144815 238.2625 210.9885311144815 241.4125 210.6377620093429 243.75 C 210.15798973217005 246.9471678276753 210.37158782552638 248.24772521701757 211.5 249 C 212.66162033607284 249.7744135573819 213.47051866138725 249.26684406149118 215.08575770745142 246.75 C 216.62045716514774 244.3586516570482 217.0167579299392 244.09445114718721 216.58575770745142 245.75 C 216.22136316955536 247.14970451918325 216.57561297551607 248.47238637823153 217.52315192086766 249.25 C 218.36088547734488 249.9375 219.2172617776454 250.275 219.42621036597993 250 C 219.63515895431445 249.725 220.47758648573765 247.925 221.29827154692038 246 L 222.7904262036162 242.5 L 222.6452131018081 246.66990759136564 C 222.56534589581364 248.96335676661676 222.84121720436275 251.21335676661676 223.25826045413942 251.66990759136564 C 223.6753037039161 252.12645841611456 225.0253037039161 251.96795612654327 226.25826045413942 251.31768028120723 C 227.49121720436273 250.66740443587122 227.9375 250.10490443587122 227.25 250.06768028120723 C 226.50098672022995 250.027125537685 226 248.59723718335613 226 246.5 C 226 244.575 226.68261947401038 241.3125 227.51693216446753 239.25 C 228.72318234091745 236.26803530332882 228.7743846944727 235.34952913971318 227.76693216446753 234.76531277451704 C 227.0701194740104 234.36123480050145 226.1625 234.02373480050144 225.75 234.01531277451704 C 225.3375 234.00689074853267 225 234.675 225 235.5 C 225 236.325 224.44719065412795 237.3375 223.771534786951 237.75 C 222.89971267215796 238.28226300521115 222.75455467563205 237.99194701215933 223.271534786951 236.75 C 223.77871494596207 235.53159552114445 223.46840447885555 234.84488277054112 222.25 234.48935771511276 C 221.2875 234.20850445842478 220.45335318961514 234.09600445842477 220.39634042136703 234.23935771511276 C 220.3393276531189 234.38271097180075 218.98932765311886 236.65294672595004 217.39634042136703 239.28432605766676 C 215.80335318961517 241.9157053893835 214.3875 243.8282053893835 214.25 243.53432605766676 C 214.1125 243.24044672595005 214.710742123174 241.5375 215.5794269403866 239.75 C 216.44811175759926 237.9625 216.89811175759928 235.9375 216.5794269403866 235.25 C 216.26074212317397 234.5625 215.55 234 215 234 Z " class="odd" fill="#000000"></path><path d="M 249.5 234.3123025818937 C 248.95 234.08781337591603 247.98397355963075 234.48820880163547 247.35327457695723 235.20207019460352 C 246.72257559428368 235.91593158757158 245.65255854572115 238.3 244.97545891348489 240.5 C 244.29835928124865 242.7 244.0268857216179 245.7375 244.37218433652768 247.25 C 244.71748295143746 248.7625 245.3375 250.00721978142437 245.75 250.01604395872081 C 246.1625 250.02486813601726 247.52481327057723 247.66236813601725 248.77736282350492 244.76604395872081 C 250.29529330802606 241.25606804479574 251.29570351646402 239.95372028401061 251.77736282350492 240.86060272131488 C 252.25454448089786 241.75905450698048 253.43408241298187 242.01380425597554 255.25 241.61060272131488 C 256.7625 241.2747712245917 258.2668343970121 240.2125 258.59296532669356 239.25 L 259.1859306533871 237.5 L 257.42709151231963 239 L 255.66825237125215 240.5 L 256.3341261856261 237.75 C 256.7646912447911 235.97180436121053 256.5582707449043 234.76738459462476 255.75 234.34174779377912 C 255.0204965967322 233.95759001406182 253.55691286298068 234.8944838881798 252.23512655284344 236.59174779377912 L 249.97025310568685 239.5 L 250.23512655284344 237.11023238729018 C 250.38080694877954 235.79586020029978 250.05 234.53679178787138 249.5 234.3123025818937 Z " class="odd" fill="#000000"></path><path d="M 238 236.5 C 238.61521981374068 236.80760990687034 238.37389473111352 238.25053560534275 237.37282352042803 240.25 C 236.4778764566634 242.0375 235.52530939372244 243.725 235.25600782500362 244 C 234.98670625628483 244.275 235.0968543608035 242.925 235.50078139060065 241 C 235.9047084203978 239.075 236.4072754833388 237.1625 236.61759708602503 236.75 C 236.82791868871126 236.3375 237.45 236.225 238 236.5 Z " class="even" fill="#ffffff"></path><path d="M 223 238.48036754128634 C 223.275 238.75536754128635 223.15771097180075 239.7722848444969 222.73935771511276 240.74018377064317 C 222.32100445842477 241.70808269678943 221.75371543022553 242.275 221.47871543022552 242 C 221.20371543022551 241.725 221.32100445842477 240.70808269678943 221.73935771511276 239.74018377064317 C 222.15771097180075 238.7722848444969 222.725 238.20536754128634 223 238.48036754128634 Z " class="even" fill="#ffffff"></path><path d="M 250 239.50685043730982 C 250.275 239.79641603012277 249.9108394564614 240.58833333333334 249.19075434769198 241.26666666666665 C 248.1311359795984 242.26484653587474 248.03580349414224 242.16446468981854 248.69075434769198 240.74018377064317 C 249.13583945646138 239.7722848444969 249.725 239.2172848444969 250 239.50685043730982 Z " class="even" fill="#ffffff"></path><path d="M 95 242 C 94.45 242 94.225 242.45 94.5 243 C 94.775 243.55 95.225 244 95.5 244 C 95.775 244 96 243.55 96 243 C 96 242.45 95.55 242 95 242 Z " class="odd" fill="#000000"></path><path d="M 202.5496031746032 252 C 202.21676587301587 251.725 201.99247076023394 252.4 202.05116959064327 253.5 C 202.12550503410998 254.89302584469115 202.30916288864293 255.04476938351837 202.656328320802 254 C 202.93046679197994 253.175 202.88244047619048 252.275 202.5496031746032 252 Z " class="odd" fill="#000000"></path><path d="M 144.25 254.96740526445387 C 146.01329122864618 254.98830490492244 147 255.5382047843748 147 256.5 C 147 257.325 146.6625 258.2166322448744 146.25 258.4814049886098 C 145.8375 258.7461777323452 144.6 258.05651010134943 143.5 256.9488102530637 L 141.5 254.93481052890778 L 144.25 254.96740526445387 Z " class="even" fill="#ffffff"></path><path d="M 151.37644411761718 257.5 C 150.45855272902494 256.31969330159984 150.5982473438338 256.9344632777997 151.71729017439526 259 C 152.76019462904762 260.925 154.3754470712574 262.6125 155.3067400459725 262.75 C 156.23803302068762 262.8875 157 262.55 157 262 C 157 261.45 156.55 261.225 156 261.5 C 155.45 261.775 154.5346522951375 261.4375 153.96589398919446 260.75 C 153.3971356832514 260.0625 152.23188324104163 258.6 151.37644411761718 257.5 Z " class="odd" fill="#000000"></path><path d="M 186.7722358455888 265.6774227050205 C 185.82196556066265 264.4798402172592 185.03446556066265 264.0625 185.0222358455888 264.75 C 185.01000613051497 265.4375 186.575 267.35 188.5 269 C 190.425 270.65 192.3375 271.9850288218824 192.75 271.96673071529426 C 193.1625 271.94843260870607 192.375 271.01577282596526 191 269.8941534203147 C 189.625 268.77253401466413 187.72250613051497 266.8750051927817 186.7722358455888 265.6774227050205 Z " class="odd" fill="#000000"></path><path d="M 751.5 264 C 751.225 264 750.1016821271969 265.4625 749.0037380604376 267.25 C 747.9057939936782 269.0375 747.0126847422109 270.725 747.0190508349547 271 C 747.0254169276983 271.275 747.4264400950935 272.175 747.9102134291663 273 C 748.632954322412 274.232521916634 749.0161258537307 274.05420319439 750.0590148926182 272 C 750.7570823634439 270.625 751.4793770688518 268.2625 751.664114237969 266.75 C 751.848851407086 265.2375 751.775 264 751.5 264 Z " class="odd" fill="#000000"></path><path d="M 738.4319817831348 266.5 C 738.1844069563097 265.95 738.2119288400869 267.3 738.493141524862 269.5 C 738.7743542096373 271.7 739.4579230404191 273.95 740.0121833710439 274.5 C 740.6615413847207 275.1443667132368 740.6397909447527 274.07746685294734 739.9510236293166 271.5 C 739.3631254407418 269.3 738.67955660996 267.05 738.4319817831348 266.5 Z " class="odd" fill="#000000"></path><path d="M 197.75 269.95547464893014 C 197.6125 269.9309857058417 196.825 270.6260221138231 196 271.5 C 194.93487973475823 272.62835340356384 194.86239977896517 273.07614192023095 195.75 273.04452535106986 C 196.4375 273.0200364079815 197.225 272.325 197.5 271.5 C 197.775 270.675 197.8875 269.9799635920185 197.75 269.95547464893014 Z " class="odd" fill="#000000"></path><path d="M 754 283.51666666666665 C 753.725 283.2325 753.15 283.3375 752.7222222222222 283.75 C 752.2944444444445 284.1625 751.9494444444445 284.95 751.9555555555555 285.5 C 751.9616666666667 286.05 752.5366666666666 285.945 753.2333333333333 285.26666666666665 C 753.9300000000001 284.58833333333337 754.275 283.80083333333334 754 283.51666666666665 Z " class="odd" fill="#000000"></path><path d="M 726.6301248056386 288 C 726.3551248056386 287.725 725.8465686431013 288.625 725.5 290 C 725.1534313568987 291.375 725.0948751943614 292.725 725.3698751943614 293 C 725.6448751943614 293.275 726.1534313568987 292.375 726.5 291 C 726.8465686431013 289.625 726.9051248056386 288.275 726.6301248056386 288 Z " class="odd" fill="#000000"></path><path d="M 760.5 291.4338472825534 C 769.1209577796408 291.6999371827259 778.0516168881437 292.548525251544 781.5 293.42925985274246 C 784.8 294.27209665180976 787.725 295.1773908669665 788 295.4410247753129 C 788.275 295.70465868365926 786.7 296.3230237864292 784.5 296.81516944813495 C 782.3 297.30731510984066 764.3 301.71273430016265 744.5 306.6049898710727 C 724.7 311.49724544198267 707.6 315.67406612462133 706.5 315.88681361026966 L 704.5 316.27362722053937 L 706.5 313.8107527074761 C 707.6 312.45617172529137 711.2 308.9857604619857 714.5 306.09872767790796 C 717.8 303.21169489383027 722.75 299.5519455195543 725.5 297.965951290628 C 728.25 296.37995706170176 733.875 294.1572468830138 738 293.02659533798806 C 744.4887889344178 291.2480355236741 747.5224221311645 291.03328826256205 760.5 291.4338472825534 Z " class="even" fill="#ffffff"></path><path d="M 712.5 297.06196413208204 C 714.7 297.009202299464 717.4 297.60334031589656 718.5 298.38227083526544 L 720.5 299.79850814320895 L 716.1062944625211 301.14925407160445 C 713.6897564169077 301.892164332222 709.9081597790839 304.075 707.7027463784682 306 C 705.4973329778526 307.925 702.4120004697181 311.4125 700.8464519159472 313.75 L 698 318 L 691.75 318.9929742661716 C 688.3125 319.53911011256594 683.3625 319.9891101125659 680.75 319.9929742661716 C 677.1166467122908 319.9983483657724 675.8594069151333 319.5886038428402 675.4019441012398 318.25 C 675.0433464420304 317.2006902198985 675.8191867888773 315.0986195602031 677.3396343506897 313 C 678.7342947322053 311.075 681.8159198866474 308.0884643008887 684.1876902494499 306.3632540019749 C 686.6063665387034 304.6039246379685 692.4521050521697 302.03570712863365 697.5 300.51473598970097 C 702.45 299.0232613818641 706.95 297.65782339676485 707.5 297.48042935614706 C 708.05 297.3030353155293 710.3 297.1147259647001 712.5 297.06196413208204 Z " class="even" fill="#ffffff"></path><path d="M 879.5487866082094 349.5 C 878.7319376827518 348.4 878.0389394717523 347.95 878.0087905837661 348.5 C 877.97864169578 349.05 879.1220019045572 352.65 880.5495910477156 356.5 C 881.9771801908739 360.35 883.5700359455209 363.95 884.0892705024866 364.5 C 884.6085050594522 365.05 885.0258333333334 366.2875 885.0166666666667 367.25 C 885.0074999999999 368.2125 885.5374207043866 369.3375 886.1942682319702 369.75 C 887.0976788773594 370.31734154514356 887.2078233373375 369.16050466438594 886.6465240284427 365 C 886.2384171889189 361.975 885.3634964845323 358.03116513263467 884.7022557964724 356.23592251696596 C 884.0410151084126 354.4406799012972 882.9375 352.9781799012972 882.25 352.98592251696596 C 881.5625 352.99366513263465 881.0076424563525 352.6625 881.016983236339 352.25 C 881.0263240163255 351.8375 880.3656355336672 350.6 879.5487866082094 349.5 Z " class="odd" fill="#000000"></path><path d="M 874.75 364.0037380604375 C 874.3375 364.0016821271969 874 364.225 874 364.5 C 874 364.775 876.5501574999213 366.6875 879.6670166664918 368.75 C 882.7838758330623 370.8125 887.3337261538857 374.75 889.7777951572104 377.5 C 892.2218641605351 380.25 896.1811117561281 386.55 898.576123147417 391.5 C 900.9711345387059 396.45 904.4762987494454 404.775 906.3653769490604 410 C 908.2544551486756 415.225 910.2950500531613 419.6125 910.9000322923621 419.75 C 911.514312601979 419.88961325986014 910.8472931714776 416.7987845359445 909.3893901861264 412.75 C 907.9535547884959 408.7625 904.5054512905839 400.55 901.726937968544 394.5 C 898.948424646504 388.45 895.4706181525403 381.7 893.9984790930688 379.5 C 892.5263400335973 377.3 889.3369435315095 373.8635705832725 886.9109313106512 371.86349018505007 C 884.484919089793 369.86340978682756 880.925 367.27759191402447 879 366.1172282454876 C 877.075 364.9568645769507 875.1625 364.0057939936782 874.75 364.0037380604375 Z " class="odd" fill="#000000"></path></g></svg>